<?xml version="1.0" encoding="UTF-8"?>
<svg xmlns="http://www.w3.org/2000/svg" xmlns:xlink="http://www.w3.org/1999/xlink" width="150pt" height="123pt" viewBox="0 0 150 123" version="1.1">
<g id="surface1">
<path style="fill-rule:nonzero;fill:rgb(98.039216%,98.039216%,98.039216%);fill-opacity:1;stroke-width:6;stroke-linecap:butt;stroke-linejoin:miter;stroke:rgb(98.039216%,98.039216%,98.039216%);stroke-opacity:1;stroke-miterlimit:10;" d="M 1070.251708 498.455169 C 1068.354625 492.493533 1064.699417 487.23788 1059.769417 483.382126 C 1058.820875 482.633904 1057.811917 481.970159 1056.754625 481.390891 L 1068.209625 480.413376 L 1068.161292 438.923284 L 1007.4365 445.850367 C 1002.572958 442.89972 997.449625 440.401625 992.132958 438.386254 C 987.553375 436.660517 982.840875 435.320959 978.043792 434.385682 C 973.234625 433.45644 968.352958 432.997852 963.453167 433.015954 C 961.018375 433.021988 958.613792 433.124567 956.197125 433.299554 C 953.780458 433.480576 951.375875 433.74004 948.977333 434.08398 C 944.186292 434.765827 939.449625 435.839887 934.833792 437.288058 C 925.602125 440.184399 916.962542 444.703899 909.313792 450.623297 C 908.359208 451.353416 907.428792 452.107672 906.504417 452.873995 C 905.586083 453.646353 904.685875 454.436813 903.809833 455.245375 C 903.550042 455.480703 903.296292 455.71603 903.048583 455.945324 C 900.668167 455.709996 898.28775 455.59535 895.89525 455.601384 C 894.946708 455.601384 893.955875 455.619486 892.952958 455.649656 C 873.293375 456.271163 861.983375 464.224034 855.953792 470.789074 C 848.214417 479.218635 848.238583 492.686622 848.160042 494.183066 L 847.851917 502.087664 L 879.322958 501.236864 L 879.322958 519.785517 L 846.492542 524.98083 L 846.770458 531.051079 C 846.7765 536.886 847.779417 542.672649 849.736917 548.169664 C 851.259417 552.315052 855.355667 562.349669 869.366292 567.020019 C 874.127125 568.504394 879.081292 569.294854 884.065667 569.361229 C 888.337125 577.947674 894.064625 585.719524 901.000458 592.338871 C 901.864417 593.171569 902.752542 593.980131 903.65275 594.782659 C 904.546917 595.585187 905.471292 596.357545 906.413792 597.1118 C 908.280667 598.63238 910.214 600.074516 912.20775 601.43821 C 916.201292 604.165599 920.406292 606.573182 924.780458 608.630792 C 933.59525 612.758078 943.008167 615.46133 952.674833 616.631935 C 955.085458 616.933637 957.52025 617.132761 959.955042 617.229305 C 962.389833 617.331884 964.84275 617.343952 967.295667 617.223271 C 969.748583 617.10259 972.195458 616.867263 974.618167 616.523322 C 977.046917 616.173348 979.457542 615.71476 981.844 615.153594 C 986.616917 614.025228 991.293167 612.504648 995.818375 610.615992 C 1000.337542 608.715268 1004.705667 606.458536 1008.880458 603.881998 C 1013.05525 601.293393 1017.024625 598.37895 1020.734208 595.162804 C 1022.589 593.557748 1024.389417 591.880284 1026.123375 590.130411 C 1027.857333 588.386572 1029.51275 586.56429 1031.089625 584.681668 C 1037.433375 577.108942 1042.502333 568.558701 1046.085042 559.350748 C 1046.967125 557.051777 1047.758583 554.716602 1048.4715 552.351257 C 1048.79775 551.247026 1049.099833 550.136762 1049.383792 549.020464 C 1053.842542 546.697357 1057.866292 543.632062 1061.297958 539.957329 C 1069.653583 531.443292 1071.20025 521.722446 1071.919208 516.490929 C 1072.644208 510.426714 1072.076292 504.284056 1070.251708 498.455169 Z M 1070.251708 498.455169 " transform="matrix(0.646552,0,0,0.647368,-545.281681,-278.375542)"/>
<path style=" stroke:none;fill-rule:nonzero;fill:rgb(98.039216%,98.039216%,98.039216%);fill-opacity:1;" d="M 38.878906 104.203125 C 41.183594 106.1875 43.640625 107.984375 46.230469 109.578125 C 47.527344 110.371094 48.84375 111.121094 50.191406 111.808594 C 51.539062 112.496094 52.910156 113.136719 54.304688 113.71875 C 59.875 116.042969 65.769531 117.5 71.78125 118.03125 C 73.277344 118.160156 74.773438 118.234375 76.273438 118.253906 C 77.78125 118.273438 79.261719 118.230469 80.75 118.113281 C 82.234375 117.996094 83.710938 117.8125 85.179688 117.558594 C 86.648438 117.308594 88.105469 116.992188 89.546875 116.617188 C 95.320312 115.082031 100.816406 112.648438 105.832031 109.398438 C 110.84375 106.167969 115.320312 102.175781 119.101562 97.566406 C 120.046875 96.417969 120.941406 95.234375 121.785156 94.011719 C 122.628906 92.792969 123.4375 91.546875 124.175781 90.257812 C 124.917969 88.96875 125.617188 87.664062 126.253906 86.324219 C 126.890625 84.984375 127.46875 83.617188 128.003906 82.234375 C 128.417969 81.15625 128.792969 80.066406 129.136719 78.964844 C 128.320312 79.21875 127.492188 79.445312 126.636719 79.640625 C 119.628906 99.066406 102.1875 112.800781 81.683594 115.042969 C 61.179688 117.285156 41.1875 107.640625 30.160156 90.1875 C 29.546875 90.214844 28.933594 90.230469 28.316406 90.230469 C 27.980469 90.230469 27.648438 90.226562 27.320312 90.21875 C 28.964844 93.058594 30.847656 95.757812 32.945312 98.28125 C 34.773438 100.398438 36.757812 102.378906 38.878906 104.203125 Z M 38.878906 104.203125 "/>
<path style=" stroke:none;fill-rule:nonzero;fill:rgb(98.039216%,98.039216%,98.039216%);fill-opacity:1;" d="M 75.816406 7.191406 C 83.011719 7.179688 90.136719 8.617188 96.769531 11.410156 L 101.21875 10.902344 C 99.472656 9.964844 97.679688 9.117188 95.84375 8.355469 C 93.078125 7.214844 90.21875 6.308594 87.300781 5.644531 C 84.386719 4.976562 81.414062 4.589844 78.425781 4.488281 C 76.925781 4.445312 75.402344 4.460938 73.898438 4.515625 C 72.390625 4.574219 70.878906 4.683594 69.378906 4.847656 C 66.375 5.171875 63.398438 5.726562 60.476562 6.515625 C 54.609375 8.105469 49.058594 10.707031 44.074219 14.195312 C 42.839844 15.054688 41.640625 15.960938 40.472656 16.917969 C 41.648438 17.070312 42.8125 17.296875 43.960938 17.59375 C 53.203125 10.816406 64.363281 7.171875 75.816406 7.191406 Z M 75.816406 7.191406 "/>
<path style=" stroke:none;fill-rule:nonzero;fill:rgb(2.745098%,2.745098%,2.745098%);fill-opacity:1;" d="M 129.796875 78.753906 C 122.476562 101.839844 101.050781 118.558594 75.753906 118.558594 C 59.175781 118.542969 43.472656 111.105469 32.945312 98.28125 C 30.769531 95.769531 28.824219 93.070312 27.128906 90.214844 C 29.890625 95.769531 33.59375 100.804688 38.078125 105.085938 C 38.636719 105.625 39.214844 106.148438 39.792969 106.667969 C 40.375 107.1875 40.972656 107.6875 41.578125 108.175781 C 42.789062 109.160156 44.035156 110.09375 45.324219 110.976562 C 47.90625 112.742188 50.625 114.300781 53.457031 115.632812 C 59.152344 118.304688 65.242188 120.054688 71.488281 120.8125 C 73.050781 121.007812 74.621094 121.136719 76.195312 121.199219 C 77.769531 121.265625 79.359375 121.273438 80.941406 121.195312 C 82.527344 121.117188 84.109375 120.964844 85.679688 120.742188 C 87.246094 120.515625 88.808594 120.21875 90.351562 119.851562 C 93.4375 119.125 96.457031 118.140625 99.382812 116.917969 C 102.308594 115.683594 105.132812 114.226562 107.828125 112.554688 C 110.53125 110.882812 113.09375 108.996094 115.496094 106.917969 C 116.695312 105.875 117.855469 104.789062 118.976562 103.660156 C 120.097656 102.527344 121.167969 101.351562 122.1875 100.128906 C 126.292969 95.230469 129.566406 89.691406 131.882812 83.730469 C 132.457031 82.242188 132.96875 80.730469 133.425781 79.199219 C 133.636719 78.484375 133.832031 77.765625 134.019531 77.042969 C 133.433594 77.335938 132.824219 77.613281 132.1875 77.871094 C 131.382812 78.195312 130.59375 78.488281 129.796875 78.753906 Z M 129.796875 78.753906 "/>
<path style=" stroke:none;fill-rule:nonzero;fill:rgb(2.745098%,2.745098%,2.745098%);fill-opacity:1;" d="M 75.753906 3.996094 C 85.097656 3.984375 94.292969 6.304688 102.511719 10.753906 L 106.894531 10.253906 C 103.75 8.347656 100.4375 6.726562 96.996094 5.421875 C 94.039062 4.304688 90.992188 3.4375 87.886719 2.832031 C 84.78125 2.230469 81.621094 1.933594 78.457031 1.941406 C 76.878906 1.945312 75.324219 2.015625 73.761719 2.128906 C 72.199219 2.246094 70.644531 2.414062 69.097656 2.636719 C 65.996094 3.078125 62.9375 3.773438 59.949219 4.710938 C 53.980469 6.585938 48.394531 9.507812 43.449219 13.34375 C 42.832031 13.816406 42.230469 14.304688 41.636719 14.800781 C 41.039062 15.300781 40.457031 15.8125 39.890625 16.335938 C 39.722656 16.488281 39.5625 16.640625 39.398438 16.789062 C 39.578125 16.808594 39.757812 16.828125 39.9375 16.847656 C 50.023438 8.527344 62.6875 3.980469 75.753906 3.996094 Z M 75.753906 3.996094 "/>
<path style=" stroke:none;fill-rule:nonzero;fill:rgb(2.745098%,2.745098%,2.745098%);fill-opacity:1;" d="M 44.074219 14.195312 C 49.058594 10.707031 54.609375 8.105469 60.476562 6.515625 C 63.394531 5.726562 66.371094 5.171875 69.378906 4.847656 C 70.878906 4.683594 72.386719 4.574219 73.898438 4.515625 C 75.402344 4.460938 76.925781 4.445312 78.421875 4.488281 C 81.414062 4.589844 84.386719 4.976562 87.300781 5.644531 C 90.21875 6.308594 93.074219 7.214844 95.84375 8.355469 C 97.675781 9.117188 99.46875 9.964844 101.21875 10.902344 L 102.511719 10.753906 C 82.351562 -0.125 57.621094 2.28125 39.9375 16.851562 C 40.117188 16.871094 40.296875 16.894531 40.472656 16.917969 C 41.640625 15.964844 42.839844 15.054688 44.074219 14.195312 Z M 44.074219 14.195312 "/>
<path style=" stroke:none;fill-rule:nonzero;fill:rgb(2.745098%,2.745098%,2.745098%);fill-opacity:1;" d="M 128.003906 82.234375 C 127.464844 83.617188 126.882812 84.980469 126.25 86.324219 C 125.613281 87.664062 124.917969 88.972656 124.175781 90.257812 C 123.433594 91.542969 122.628906 92.792969 121.78125 94.011719 C 120.9375 95.234375 120.042969 96.417969 119.097656 97.566406 C 115.316406 102.175781 110.839844 106.167969 105.832031 109.398438 C 100.816406 112.648438 95.320312 115.082031 89.546875 116.613281 C 88.105469 116.992188 86.648438 117.308594 85.179688 117.558594 C 83.707031 117.808594 82.230469 117.992188 80.746094 118.113281 C 79.261719 118.230469 77.777344 118.273438 76.273438 118.253906 C 74.769531 118.234375 73.273438 118.160156 71.777344 118.03125 C 65.765625 117.5 59.871094 116.042969 54.304688 113.71875 C 52.910156 113.132812 51.539062 112.5 50.191406 111.808594 C 48.839844 111.121094 47.523438 110.367188 46.230469 109.574219 C 43.640625 107.984375 41.183594 106.1875 38.878906 104.203125 C 36.757812 102.378906 34.773438 100.398438 32.945312 98.28125 C 43.472656 111.105469 59.175781 118.542969 75.753906 118.558594 C 101.050781 118.558594 122.476562 101.839844 129.796875 78.75 C 129.578125 78.824219 129.355469 78.894531 129.136719 78.960938 C 128.789062 80.066406 128.414062 81.15625 128.003906 82.234375 Z M 128.003906 82.234375 "/>
<path style=" stroke:none;fill-rule:nonzero;fill:rgb(2.745098%,2.745098%,2.745098%);fill-opacity:1;" d="M 147.503906 44.308594 C 146.277344 40.449219 143.917969 37.046875 140.726562 34.550781 C 140.117188 34.066406 139.464844 33.636719 138.777344 33.261719 L 146.183594 32.628906 L 146.15625 5.769531 L 106.894531 10.253906 C 109.121094 11.605469 111.265625 13.097656 113.304688 14.71875 L 142.199219 11.394531 L 142.199219 27.40625 L 132.582031 28.515625 L 131.203125 24.964844 L 124.109375 25.777344 C 124.847656 26.753906 125.554688 27.753906 126.234375 28.777344 C 127.402344 30.550781 128.476562 32.378906 129.453125 34.261719 C 132.679688 34.515625 135.769531 35.648438 138.398438 37.535156 C 141.039062 39.394531 142.980469 42.085938 143.917969 45.179688 C 144.832031 48.289062 145.089844 51.550781 144.675781 54.765625 C 144.023438 59.59375 141.851562 64.085938 138.480469 67.59375 C 137.511719 68.582031 136.464844 69.488281 135.347656 70.304688 C 135.140625 71.730469 134.898438 73.15625 134.601562 74.566406 C 134.417969 75.394531 134.226562 76.222656 134.019531 77.042969 C 136.898438 75.539062 139.503906 73.554688 141.71875 71.179688 C 147.125 65.664062 148.121094 59.371094 148.585938 55.988281 C 149.054688 52.0625 148.6875 48.082031 147.503906 44.308594 Z M 147.503906 44.308594 "/>
<path style=" stroke:none;fill-rule:nonzero;fill:rgb(2.745098%,2.745098%,2.745098%);fill-opacity:1;" d="M 27.128906 90.214844 L 27.316406 90.21875 C 26.433594 88.691406 25.617188 87.125 24.867188 85.511719 C 22.894531 85.347656 20.949219 84.964844 19.0625 84.367188 C 12.828125 82.285156 9.746094 78.003906 8.589844 74.839844 C 7.542969 71.898438 7.003906 68.796875 6.988281 65.675781 L 21.859375 63.230469 C 21.859375 63.230469 22.003906 67.722656 23.71875 69.964844 C 25.242188 65.777344 27.394531 61.203125 28.414062 57.542969 C 28.296875 57.542969 28.179688 57.542969 28.058594 57.546875 L 28.058594 52.96875 C 27.347656 50.753906 26.578125 48.585938 26.125 46.46875 C 24.832031 44.765625 23.546875 43.308594 23.328125 41.34375 L 7.867188 41.738281 C 7.867188 41.738281 8.269531 33.890625 12.304688 29.488281 C 16.34375 25.085938 22.898438 21.480469 33.015625 21.160156 C 33.765625 21.136719 34.484375 21.128906 35.171875 21.136719 C 35.632812 20.613281 36.101562 20.101562 36.578125 19.59375 C 37.488281 18.628906 38.425781 17.699219 39.394531 16.792969 C 37.859375 16.640625 36.316406 16.566406 34.773438 16.570312 C 34.160156 16.570312 33.519531 16.582031 32.871094 16.601562 C 20.15625 17.003906 12.84375 22.152344 8.949219 26.402344 C 3.945312 31.859375 3.957031 40.574219 3.910156 41.546875 L 3.710938 46.660156 L 24.058594 46.109375 L 24.058594 58.121094 L 2.828125 61.480469 L 3.007812 65.414062 C 3.011719 69.191406 3.660156 72.9375 4.929688 76.492188 C 5.914062 79.179688 8.5625 85.675781 17.621094 88.699219 C 20.699219 89.660156 23.898438 90.171875 27.125 90.214844 L 27.117188 90.195312 Z M 27.128906 90.214844 "/>
<path style=" stroke:none;fill-rule:nonzero;fill:rgb(2.745098%,2.745098%,2.745098%);fill-opacity:1;" d="M 126.636719 79.640625 C 127.492188 79.445312 128.316406 79.21875 129.136719 78.964844 C 129.234375 78.648438 129.332031 78.335938 129.425781 78.019531 C 129.84375 76.597656 130.195312 75.152344 130.507812 73.703125 C 130.554688 73.484375 130.59375 73.265625 130.636719 73.046875 C 129.90625 73.378906 129.136719 73.695312 128.332031 73.980469 C 127.871094 75.898438 127.304688 77.789062 126.636719 79.640625 Z M 126.636719 79.640625 "/>
<path style=" stroke:none;fill-rule:nonzero;fill:rgb(2.745098%,2.745098%,2.745098%);fill-opacity:1;" d="M 119.632812 26.289062 L 117.238281 26.5625 C 119.273438 28.996094 121.09375 31.601562 122.675781 34.355469 C 123.386719 34.25 124.113281 34.171875 124.859375 34.128906 C 124.261719 33.042969 123.625 31.972656 122.957031 30.921875 C 121.921875 29.328125 120.816406 27.78125 119.632812 26.289062 Z M 119.632812 26.289062 "/>
<path style=" stroke:none;fill-rule:nonzero;fill:rgb(2.745098%,2.745098%,2.745098%);fill-opacity:1;" d="M 104.890625 15.6875 L 108.191406 15.304688 C 107.992188 15.15625 107.792969 15.011719 107.589844 14.863281 C 106.371094 13.996094 105.125 13.171875 103.847656 12.394531 C 102.984375 11.875 102.109375 11.378906 101.21875 10.902344 L 96.769531 11.410156 C 99.59375 12.601562 102.308594 14.03125 104.890625 15.6875 Z M 104.890625 15.6875 "/>
<path style=" stroke:none;fill-rule:nonzero;fill:rgb(2.745098%,2.745098%,2.745098%);fill-opacity:1;" d="M 26.59375 38.964844 C 27.390625 37.203125 28.285156 35.484375 29.265625 33.816406 C 27.609375 34.066406 26.105469 34.9375 25.058594 36.253906 C 24.144531 37.792969 23.636719 39.542969 23.582031 41.335938 L 23.332031 41.34375 C 23.546875 43.308594 24.835938 44.761719 26.128906 46.46875 C 25.574219 43.882812 25.5 41.378906 26.59375 38.964844 Z M 26.59375 38.964844 "/>
<path style=" stroke:none;fill-rule:nonzero;fill:rgb(2.745098%,2.745098%,2.745098%);fill-opacity:1;" d="M 25.625 71.605469 C 27.246094 68.261719 29.710938 64.808594 29.710938 61.277344 C 29.703125 60.023438 29.566406 58.773438 29.3125 57.546875 C 29.023438 57.539062 28.722656 57.539062 28.414062 57.542969 C 27.398438 61.203125 25.246094 65.777344 23.722656 69.964844 C 23.816406 70.089844 23.914062 70.207031 24.023438 70.316406 C 24.496094 70.816406 25.035156 71.25 25.625 71.605469 Z M 25.625 71.605469 "/>
<path style=" stroke:none;fill-rule:nonzero;fill:rgb(2.745098%,2.745098%,2.745098%);fill-opacity:1;" d="M 40.472656 16.917969 C 39.273438 17.898438 38.109375 18.925781 36.980469 19.992188 C 36.582031 20.371094 36.1875 20.753906 35.800781 21.144531 C 37.085938 21.171875 38.261719 21.25 39.34375 21.378906 C 40.8125 20.03125 42.351562 18.769531 43.957031 17.59375 C 42.808594 17.296875 41.644531 17.070312 40.472656 16.917969 Z M 40.472656 16.917969 "/>
<path style=" stroke:none;fill-rule:nonzero;fill:rgb(2.745098%,2.745098%,2.745098%);fill-opacity:1;" d="M 30.160156 90.1875 C 29.230469 88.726562 28.375 87.214844 27.589844 85.65625 C 26.652344 85.640625 25.746094 85.589844 24.867188 85.507812 C 25.617188 87.117188 26.433594 88.6875 27.316406 90.214844 C 27.648438 90.222656 27.980469 90.230469 28.3125 90.230469 C 28.929688 90.230469 29.542969 90.214844 30.160156 90.1875 Z M 30.160156 90.1875 "/>
<path style=" stroke:none;fill-rule:nonzero;fill:rgb(2.745098%,2.745098%,2.745098%);fill-opacity:1;" d="M 26.125 46.46875 C 26.578125 48.585938 27.347656 50.753906 28.058594 52.96875 L 28.058594 49.574219 C 27.535156 48.46875 26.886719 47.425781 26.125 46.46875 Z M 26.125 46.46875 "/>
<path style=" stroke:none;fill-rule:nonzero;fill:rgb(2.745098%,2.745098%,2.745098%);fill-opacity:1;" d="M 78.070312 50.742188 C 73.792969 50.742188 71.964844 55.09375 71.875 58.871094 C 71.78125 62.902344 73.914062 67.476562 78.070312 67.476562 C 82.148438 67.476562 84.054688 62.75 83.949219 58.828125 C 83.851562 55.214844 82.269531 50.742188 78.070312 50.742188 Z M 78.070312 50.742188 "/>
<path style=" stroke:none;fill-rule:nonzero;fill:rgb(2.745098%,2.745098%,2.745098%);fill-opacity:1;" d="M 31.496094 72.398438 C 35.125 71.710938 37.683594 68.445312 37.492188 64.753906 C 37.417969 60.6875 35.609375 57.71875 29.308594 57.546875 C 29.566406 58.773438 29.699219 60.023438 29.710938 61.277344 C 29.710938 64.808594 27.246094 68.261719 25.621094 71.605469 C 27.277344 72.59375 29.199219 72.789062 31.496094 72.398438 Z M 31.496094 72.398438 "/>
<path style=" stroke:none;fill-rule:nonzero;fill:rgb(2.745098%,2.745098%,2.745098%);fill-opacity:1;" d="M 110.433594 39.535156 C 111.566406 38.597656 112.792969 37.777344 114.09375 37.09375 C 116.785156 35.710938 119.683594 34.789062 122.675781 34.355469 C 121.09375 31.601562 119.273438 28.996094 117.238281 26.5625 L 110.914062 27.285156 Z M 110.433594 39.535156 "/>
<path style=" stroke:none;fill-rule:nonzero;fill:rgb(2.745098%,2.745098%,2.745098%);fill-opacity:1;" d="M 28.058594 47.421875 C 28.058594 47.421875 30.335938 47.421875 33.613281 45.097656 C 36.894531 42.777344 36.574219 37.535156 34.695312 35.371094 C 33.601562 34.113281 31.421875 33.46875 29.261719 33.820312 C 28.28125 35.484375 27.390625 37.203125 26.59375 38.964844 C 25.5 41.375 25.578125 43.882812 26.128906 46.46875 C 26.886719 47.425781 27.535156 48.46875 28.058594 49.574219 Z M 28.058594 47.421875 "/>
<path style=" stroke:none;fill-rule:nonzero;fill:rgb(2.745098%,2.745098%,2.745098%);fill-opacity:1;" d="M 117.332031 76 C 106.9375 76.441406 101.296875 71.238281 101.296875 71.238281 C 102.386719 69.253906 103.289062 67.167969 103.996094 65.015625 C 104.492188 63.332031 104.816406 61.601562 104.953125 59.851562 L 110.691406 58.789062 C 110.691406 58.789062 111.609375 61.109375 113.429688 62.132812 C 115.25 63.152344 119.605469 63.734375 123.125 61.03125 C 126.464844 58.351562 127.386719 53.648438 125.304688 49.902344 C 123.304688 46.660156 118.625 46.601562 115.6875 47.882812 C 113.835938 48.734375 112.207031 50.011719 110.929688 51.605469 L 104.375 49.882812 C 104.046875 48.570312 103.640625 47.28125 103.15625 46.019531 C 102.503906 44.511719 101.707031 43.070312 100.777344 41.71875 C 100.078125 40.734375 98.976562 39.515625 98.976562 39.515625 L 99.277344 33.910156 L 104.976562 32.792969 C 104.976562 32.792969 103.957031 28.1875 103.15625 25.445312 C 102.449219 23.238281 101.410156 21.15625 100.078125 19.261719 L 100.257812 16.21875 L 104.886719 15.6875 C 102.308594 14.03125 99.589844 12.601562 96.765625 11.414062 L 96.558594 11.4375 L 96.328125 15.332031 C 93.410156 13.03125 89.941406 11.53125 86.265625 10.988281 C 84.710938 10.738281 83.140625 10.613281 81.570312 10.617188 C 76.097656 10.644531 70.691406 11.835938 65.714844 14.117188 C 61.054688 16.332031 57.15625 19.882812 54.515625 24.320312 C 54.3125 24.066406 54.101562 23.8125 53.882812 23.570312 C 51.890625 21.296875 49.382812 19.539062 46.570312 18.441406 C 45.714844 18.105469 44.84375 17.824219 43.957031 17.59375 C 42.351562 18.769531 40.8125 20.035156 39.34375 21.378906 C 45.132812 22.050781 48.203125 24.050781 50.484375 26.609375 C 54.027344 30.644531 55.238281 36.230469 53.683594 41.378906 C 51.960938 47.464844 45.527344 50.425781 45.527344 50.425781 C 45.527344 50.425781 49.921875 50.90625 52.683594 53.90625 C 55.734375 57.359375 57.058594 62.011719 56.28125 66.558594 C 55.480469 71.5625 53.640625 77.285156 45.085938 81.808594 C 39.675781 84.667969 33.195312 85.765625 27.585938 85.664062 C 28.371094 87.214844 29.226562 88.726562 30.15625 90.195312 C 36.089844 90.011719 41.914062 88.527344 47.214844 85.847656 C 52.367188 83.121094 55.390625 79.882812 57.242188 76.597656 C 59.761719 79.472656 62.929688 81.695312 66.488281 83.085938 C 69.667969 84.300781 73.046875 84.925781 76.449219 84.925781 C 80.023438 84.917969 83.566406 84.277344 86.917969 83.042969 C 91.570312 81.253906 95.691406 78.3125 98.894531 74.496094 C 100.25 75.691406 101.742188 76.722656 103.335938 77.570312 C 107.292969 79.5625 111.644531 80.636719 116.070312 80.710938 C 116.542969 80.710938 117.070312 80.726562 117.550781 80.710938 C 120.605469 80.664062 123.648438 80.308594 126.632812 79.648438 C 127.300781 77.792969 127.867188 75.90625 128.328125 73.988281 C 124.785156 75.207031 121.078125 75.886719 117.332031 76 Z M 97.902344 68.515625 C 94.796875 73.167969 90.304688 76.726562 85.066406 78.683594 C 79.503906 80.648438 73.4375 80.648438 67.875 78.683594 C 64.507812 77.382812 61.511719 75.265625 59.160156 72.519531 C 59.710938 70.761719 60.070312 68.949219 60.242188 67.117188 C 60.652344 63.464844 60.230469 59.769531 59 56.308594 C 57.945312 53.613281 56.242188 51.222656 54.042969 49.34375 C 56.632812 46.257812 58.121094 42.398438 58.28125 38.375 C 58.472656 35.125 57.960938 31.875 56.773438 28.847656 C 59.21875 24.195312 63.128906 20.480469 67.898438 18.28125 C 73.59375 15.515625 80.671875 14.976562 85.585938 15.636719 C 90.503906 16.296875 94.523438 18.761719 96.800781 21.820312 C 98.28125 23.972656 99.347656 26.382812 99.941406 28.925781 L 85.628906 31.808594 C 84.066406 28.207031 81.070312 26.847656 77.3125 27.6875 C 73.554688 28.527344 71.714844 32.289062 70.996094 35.453125 C 70.523438 37.882812 70.269531 40.34375 70.234375 42.816406 C 71.605469 41.644531 73.109375 40.636719 74.714844 39.816406 C 76.832031 38.855469 82.109375 36.933594 87.1875 37.894531 C 92.929688 38.9375 97.707031 42.917969 99.78125 48.382812 C 102.257812 54.625 101.097656 63.59375 97.902344 68.515625 Z M 97.902344 68.515625 "/>
<path style=" stroke:none;fill-rule:nonzero;fill:rgb(2.745098%,2.745098%,2.745098%);fill-opacity:1;" d="M 135.34375 70.304688 C 134.085938 71.222656 132.753906 72.027344 131.355469 72.707031 C 130.945312 74.75 130.421875 76.765625 129.792969 78.753906 C 130.589844 78.488281 131.382812 78.195312 132.179688 77.875 C 132.820312 77.613281 133.425781 77.339844 134.011719 77.042969 C 134.222656 76.222656 134.417969 75.398438 134.59375 74.566406 C 134.898438 73.15625 135.140625 71.734375 135.34375 70.304688 Z M 135.34375 70.304688 "/>
<path style=" stroke:none;fill-rule:nonzero;fill:rgb(2.745098%,2.745098%,2.745098%);fill-opacity:1;" d="M 27.117188 90.195312 L 27.128906 90.214844 Z M 27.117188 90.195312 "/>
<path style=" stroke:none;fill-rule:nonzero;fill:rgb(2.745098%,2.745098%,2.745098%);fill-opacity:1;" d="M 109.417969 15.164062 L 113.304688 14.71875 C 111.265625 13.097656 109.125 11.605469 106.894531 10.253906 L 102.511719 10.753906 C 104.917969 12.058594 107.222656 13.53125 109.417969 15.164062 Z M 109.417969 15.164062 "/>
<path style=" stroke:none;fill-rule:nonzero;fill:rgb(2.745098%,2.745098%,2.745098%);fill-opacity:1;" d="M 36.578125 19.59375 C 36.101562 20.097656 35.632812 20.613281 35.175781 21.136719 L 35.277344 21.136719 C 36.75 19.625 38.304688 18.191406 39.933594 16.851562 C 39.753906 16.828125 39.574219 16.808594 39.394531 16.792969 C 38.425781 17.695312 37.488281 18.628906 36.578125 19.59375 Z M 36.578125 19.59375 "/>
<path style=" stroke:none;fill-rule:nonzero;fill:rgb(2.745098%,2.745098%,2.745098%);fill-opacity:1;" d="M 125.703125 34.09375 C 126.054688 34.085938 126.410156 34.082031 126.765625 34.09375 C 127.726562 34.113281 128.617188 34.171875 129.453125 34.265625 C 128.476562 32.382812 127.402344 30.550781 126.234375 28.78125 C 125.558594 27.757812 124.847656 26.757812 124.109375 25.777344 L 120.589844 26.179688 C 122.507812 28.671875 124.21875 31.320312 125.703125 34.09375 Z M 125.703125 34.09375 "/>
<path style=" stroke:none;fill-rule:nonzero;fill:rgb(2.745098%,2.745098%,2.745098%);fill-opacity:1;" d="M 130.507812 73.703125 C 130.195312 75.152344 129.84375 76.597656 129.425781 78.019531 C 129.332031 78.335938 129.234375 78.648438 129.136719 78.964844 C 129.355469 78.894531 129.578125 78.824219 129.796875 78.753906 C 130.425781 76.765625 130.945312 74.75 131.355469 72.707031 C 131.121094 72.824219 130.882812 72.9375 130.636719 73.046875 C 130.59375 73.265625 130.554688 73.484375 130.507812 73.703125 Z M 130.507812 73.703125 "/>
<path style=" stroke:none;fill-rule:nonzero;fill:rgb(2.745098%,2.745098%,2.745098%);fill-opacity:1;" d="M 36.980469 19.996094 C 38.109375 18.929688 39.273438 17.90625 40.472656 16.921875 C 40.296875 16.898438 40.117188 16.875 39.9375 16.855469 C 38.308594 18.199219 36.753906 19.628906 35.28125 21.140625 C 35.457031 21.140625 35.636719 21.144531 35.808594 21.148438 C 36.195312 20.757812 36.585938 20.375 36.980469 19.996094 Z M 36.980469 19.996094 "/>
<path style=" stroke:none;fill-rule:nonzero;fill:rgb(2.745098%,2.745098%,2.745098%);fill-opacity:1;" d="M 103.847656 12.394531 C 105.125 13.171875 106.371094 13.996094 107.585938 14.863281 C 107.789062 15.011719 107.992188 15.15625 108.191406 15.304688 L 109.414062 15.164062 C 107.222656 13.53125 104.914062 12.058594 102.511719 10.753906 L 101.21875 10.902344 C 102.105469 11.378906 102.980469 11.875 103.847656 12.394531 Z M 103.847656 12.394531 "/>
<path style=" stroke:none;fill-rule:nonzero;fill:rgb(2.745098%,2.745098%,2.745098%);fill-opacity:1;" d="M 122.957031 30.921875 C 123.625 31.972656 124.261719 33.039062 124.859375 34.128906 C 125.140625 34.113281 125.421875 34.101562 125.703125 34.09375 C 124.21875 31.320312 122.507812 28.671875 120.589844 26.179688 L 119.632812 26.289062 C 120.8125 27.78125 121.921875 29.324219 122.957031 30.921875 Z M 122.957031 30.921875 "/>
<path style=" stroke:none;fill-rule:nonzero;fill:rgb(98.039216%,98.039216%,98.039216%);fill-opacity:1;" d="M 24.054688 37.644531 C 26.566406 32.058594 29.953125 26.910156 34.089844 22.398438 C 34.445312 21.972656 34.808594 21.554688 35.175781 21.136719 C 34.484375 21.128906 33.765625 21.136719 33.015625 21.160156 C 22.902344 21.480469 16.34375 25.085938 12.304688 29.488281 C 8.269531 33.890625 7.867188 41.738281 7.867188 41.738281 L 23.332031 41.34375 C 23.230469 40.066406 23.484375 38.789062 24.054688 37.644531 Z M 24.054688 37.644531 "/>
<path style=" stroke:none;fill-rule:nonzero;fill:rgb(98.039216%,98.039216%,98.039216%);fill-opacity:1;" d="M 23.722656 69.964844 C 22.007812 67.722656 21.859375 63.230469 21.859375 63.230469 L 6.992188 65.675781 C 7.003906 68.796875 7.542969 71.898438 8.589844 74.839844 C 9.75 78.003906 12.828125 82.285156 19.0625 84.367188 C 20.949219 84.964844 22.894531 85.347656 24.867188 85.511719 C 23.882812 83.394531 23.027344 81.226562 22.300781 79.007812 C 21.585938 76.820312 22.421875 73.535156 23.722656 69.964844 Z M 23.722656 69.964844 "/>
<path style=" stroke:none;fill-rule:nonzero;fill:rgb(98.039216%,98.039216%,98.039216%);fill-opacity:1;" d="M 28.058594 52.96875 L 28.058594 57.546875 C 28.179688 57.546875 28.296875 57.546875 28.414062 57.542969 C 28.59375 56.910156 28.738281 56.265625 28.851562 55.617188 C 28.613281 54.726562 28.339844 53.84375 28.058594 52.96875 Z M 28.058594 52.96875 "/>
<path style=" stroke:none;fill-rule:nonzero;fill:rgb(98.039216%,98.039216%,98.039216%);fill-opacity:1;" d="M 24.515625 78.265625 C 23.804688 76.105469 24.515625 73.882812 25.621094 71.605469 C 25.03125 71.25 24.492188 70.816406 24.019531 70.316406 C 23.914062 70.207031 23.8125 70.089844 23.722656 69.964844 C 22.421875 73.535156 21.585938 76.820312 22.300781 79.007812 C 23.027344 81.226562 23.882812 83.394531 24.867188 85.511719 C 25.746094 85.59375 26.652344 85.644531 27.589844 85.660156 C 26.382812 83.277344 25.355469 80.804688 24.515625 78.265625 Z M 24.515625 78.265625 "/>
<path style=" stroke:none;fill-rule:nonzero;fill:rgb(98.039216%,98.039216%,98.039216%);fill-opacity:1;" d="M 25.058594 36.253906 C 26.105469 34.9375 27.605469 34.066406 29.265625 33.816406 C 31.996094 29.195312 35.390625 25.003906 39.347656 21.378906 C 38.265625 21.25 37.089844 21.171875 35.804688 21.144531 C 35.105469 21.839844 34.421875 22.546875 33.75 23.269531 C 32.707031 24.398438 31.699219 25.558594 30.714844 26.746094 C 31.785156 25.253906 32.910156 23.804688 34.089844 22.398438 C 29.953125 26.910156 26.566406 32.058594 24.054688 37.644531 C 23.484375 38.789062 23.230469 40.066406 23.332031 41.34375 L 23.582031 41.335938 C 23.636719 39.542969 24.144531 37.792969 25.058594 36.253906 Z M 25.058594 36.253906 "/>
<path style=" stroke:none;fill-rule:nonzero;fill:rgb(98.039216%,98.039216%,98.039216%);fill-opacity:1;" d="M 29.308594 57.546875 C 29.179688 56.902344 29.023438 56.257812 28.851562 55.617188 C 28.738281 56.265625 28.59375 56.910156 28.414062 57.542969 C 28.722656 57.539062 29.019531 57.539062 29.308594 57.546875 Z M 29.308594 57.546875 "/>
<path style=" stroke:none;fill-rule:nonzero;fill:rgb(98.039216%,98.039216%,98.039216%);fill-opacity:1;" d="M 28.992188 54.078125 C 29.007812 52.527344 28.691406 50.992188 28.058594 49.574219 L 28.058594 52.96875 C 28.339844 53.84375 28.613281 54.726562 28.851562 55.617188 C 28.9375 55.109375 28.984375 54.59375 28.992188 54.078125 Z M 28.992188 54.078125 "/>
<path style=" stroke:none;fill-rule:nonzero;fill:rgb(98.039216%,98.039216%,98.039216%);fill-opacity:1;" d="M 45.089844 81.804688 C 53.644531 77.28125 55.484375 71.558594 56.28125 66.554688 C 57.058594 62.011719 55.738281 57.359375 52.683594 53.90625 C 49.925781 50.902344 45.527344 50.421875 45.527344 50.421875 C 45.527344 50.421875 51.964844 47.460938 53.683594 41.375 C 55.242188 36.230469 54.03125 30.644531 50.484375 26.605469 C 48.207031 24.046875 45.136719 22.046875 39.347656 21.378906 C 35.390625 25.003906 31.996094 29.195312 29.265625 33.816406 C 31.421875 33.46875 33.597656 34.113281 34.699219 35.371094 C 36.578125 37.53125 36.894531 42.777344 33.617188 45.097656 C 30.339844 47.421875 28.0625 47.417969 28.0625 47.417969 L 28.0625 49.574219 C 28.691406 50.988281 29.011719 52.527344 28.992188 54.074219 C 28.988281 54.59375 28.941406 55.105469 28.855469 55.613281 C 29.027344 56.253906 29.183594 56.898438 29.3125 57.546875 C 35.613281 57.71875 37.421875 60.6875 37.496094 64.753906 C 37.6875 68.445312 35.125 71.710938 31.5 72.398438 C 29.199219 72.785156 27.28125 72.59375 25.625 71.605469 C 24.519531 73.878906 23.804688 76.101562 24.519531 78.265625 C 25.359375 80.804688 26.386719 83.273438 27.589844 85.660156 C 33.199219 85.765625 39.679688 84.667969 45.089844 81.804688 Z M 45.089844 81.804688 "/>
<path style=" stroke:none;fill-rule:nonzero;fill:rgb(98.039216%,98.039216%,98.039216%);fill-opacity:1;" d="M 35.277344 21.136719 L 35.175781 21.136719 C 34.808594 21.554688 34.445312 21.972656 34.089844 22.398438 C 34.480469 21.972656 34.875 21.550781 35.277344 21.136719 Z M 35.277344 21.136719 "/>
<path style=" stroke:none;fill-rule:nonzero;fill:rgb(98.039216%,98.039216%,98.039216%);fill-opacity:1;" d="M 30.714844 26.746094 C 31.695312 25.558594 32.707031 24.398438 33.75 23.269531 C 34.421875 22.546875 35.105469 21.839844 35.804688 21.144531 C 35.628906 21.140625 35.453125 21.140625 35.277344 21.136719 C 34.875 21.550781 34.480469 21.972656 34.089844 22.398438 C 32.910156 23.804688 31.785156 25.253906 30.714844 26.746094 Z M 30.714844 26.746094 "/>
<path style=" stroke:none;fill-rule:nonzero;fill:rgb(98.039216%,98.039216%,98.039216%);fill-opacity:1;" d="M 87.1875 37.894531 C 82.109375 36.933594 76.832031 38.855469 74.714844 39.816406 C 73.109375 40.636719 71.605469 41.644531 70.234375 42.816406 C 70.269531 40.34375 70.523438 37.878906 70.996094 35.453125 C 71.714844 32.289062 73.554688 28.527344 77.3125 27.683594 C 81.070312 26.84375 84.066406 28.203125 85.628906 31.808594 L 99.941406 28.925781 C 99.347656 26.382812 98.28125 23.972656 96.800781 21.820312 C 94.523438 18.757812 90.503906 16.296875 85.585938 15.636719 C 80.667969 14.976562 73.59375 15.515625 67.898438 18.277344 C 63.128906 20.480469 59.21875 24.195312 56.773438 28.84375 C 57.960938 31.875 58.472656 35.125 58.28125 38.371094 C 58.121094 42.398438 56.632812 46.253906 54.042969 49.339844 C 56.242188 51.21875 57.945312 53.613281 59 56.304688 C 60.230469 59.765625 60.652344 63.464844 60.242188 67.113281 C 60.070312 68.949219 59.710938 70.757812 59.160156 72.519531 C 61.511719 75.261719 64.507812 77.382812 67.875 78.683594 C 73.4375 80.644531 79.503906 80.644531 85.066406 78.683594 C 90.304688 76.726562 94.796875 73.167969 97.902344 68.515625 C 101.097656 63.589844 102.257812 54.625 99.78125 48.382812 C 97.707031 42.917969 92.929688 38.9375 87.1875 37.894531 Z M 78.070312 67.476562 C 73.914062 67.476562 71.777344 62.90625 71.875 58.871094 C 71.960938 55.09375 73.792969 50.746094 78.070312 50.746094 C 82.269531 50.746094 83.847656 55.214844 83.945312 58.832031 C 84.054688 62.746094 82.148438 67.476562 78.070312 67.476562 Z M 78.070312 67.476562 "/>
<path style=" stroke:none;fill-rule:nonzero;fill:rgb(98.039216%,98.039216%,98.039216%);fill-opacity:1;" d="M 124.109375 25.777344 L 131.203125 24.964844 L 132.582031 28.515625 L 142.199219 27.40625 L 142.199219 11.394531 L 113.304688 14.71875 L 113.410156 14.800781 C 117.421875 17.996094 121.015625 21.683594 124.109375 25.777344 Z M 124.109375 25.777344 "/>
<path style=" stroke:none;fill-rule:nonzero;fill:rgb(98.039216%,98.039216%,98.039216%);fill-opacity:1;" d="M 131.320312 38.234375 L 131.777344 39.339844 C 132.0625 40.082031 132.359375 40.828125 132.617188 41.578125 C 132.890625 42.328125 133.125 43.089844 133.371094 43.851562 L 133.707031 45 C 133.824219 45.378906 133.917969 45.769531 134.023438 46.152344 C 135.625 52.335938 136.242188 58.730469 135.855469 65.105469 L 135.777344 66.296875 C 135.753906 66.691406 135.710938 67.089844 135.675781 67.484375 L 135.625 68.078125 C 135.605469 68.277344 135.578125 68.476562 135.558594 68.671875 L 135.417969 69.859375 C 135.394531 70.007812 135.375 70.15625 135.351562 70.304688 C 136.46875 69.488281 137.515625 68.582031 138.484375 67.59375 C 141.859375 64.085938 144.03125 59.59375 144.683594 54.765625 C 145.097656 51.550781 144.835938 48.289062 143.921875 45.179688 C 142.988281 42.085938 141.046875 39.394531 138.40625 37.535156 C 135.777344 35.648438 132.683594 34.515625 129.460938 34.261719 C 129.949219 35.207031 130.414062 36.164062 130.847656 37.140625 C 131 37.503906 131.167969 37.863281 131.320312 38.234375 Z M 131.320312 38.234375 "/>
<path style=" stroke:none;fill-rule:nonzero;fill:rgb(98.039216%,98.039216%,98.039216%);fill-opacity:1;" d="M 117.238281 26.5625 L 119.632812 26.289062 C 118.964844 25.445312 118.273438 24.625 117.558594 23.820312 C 116.566406 22.707031 115.542969 21.621094 114.46875 20.585938 C 113.394531 19.550781 112.285156 18.554688 111.136719 17.597656 C 110.183594 16.800781 109.195312 16.039062 108.191406 15.304688 L 104.890625 15.6875 C 109.535156 18.664062 113.695312 22.332031 117.238281 26.5625 Z M 117.238281 26.5625 "/>
<path style=" stroke:none;fill-rule:nonzero;fill:rgb(98.039216%,98.039216%,98.039216%);fill-opacity:1;" d="M 129.832031 61.277344 C 129.835938 65.554688 129.332031 69.820312 128.332031 73.980469 C 129.136719 73.695312 129.90625 73.378906 130.636719 73.046875 C 130.878906 71.808594 131.085938 70.5625 131.253906 69.308594 L 131.382812 68.203125 C 131.402344 68.015625 131.429688 67.832031 131.445312 67.648438 L 131.5 67.09375 C 131.53125 66.722656 131.570312 66.351562 131.597656 65.980469 L 131.671875 64.867188 C 131.75 63.382812 131.800781 61.886719 131.769531 60.398438 C 131.769531 59.65625 131.726562 58.914062 131.707031 58.171875 L 131.632812 57.058594 C 131.613281 56.6875 131.578125 56.320312 131.542969 55.949219 C 131.507812 55.582031 131.480469 55.210938 131.433594 54.84375 L 131.300781 53.738281 C 131.253906 53.367188 131.191406 53.003906 131.140625 52.636719 L 131.058594 52.085938 L 130.960938 51.539062 C 130.722656 50.074219 130.40625 48.625 130.042969 47.1875 C 128.878906 42.628906 127.136719 38.242188 124.863281 34.128906 C 124.117188 34.171875 123.386719 34.25 122.679688 34.355469 C 127.382812 42.542969 129.847656 51.828125 129.832031 61.277344 Z M 129.832031 61.277344 "/>
<path style=" stroke:none;fill-rule:nonzero;fill:rgb(98.039216%,98.039216%,98.039216%);fill-opacity:1;" d="M 104.890625 15.6875 L 100.261719 16.21875 L 100.082031 19.261719 C 101.414062 21.15625 102.453125 23.238281 103.160156 25.445312 C 103.957031 28.1875 104.976562 32.792969 104.976562 32.792969 L 99.28125 33.910156 L 98.980469 39.515625 C 98.980469 39.515625 100.082031 40.738281 100.78125 41.71875 C 101.710938 43.070312 102.503906 44.511719 103.160156 46.019531 C 103.644531 47.28125 104.050781 48.570312 104.378906 49.882812 L 110.933594 51.605469 C 112.210938 50.011719 113.839844 48.734375 115.691406 47.882812 C 118.628906 46.601562 123.308594 46.660156 125.308594 49.902344 C 127.386719 53.648438 126.46875 58.351562 123.128906 61.03125 C 119.609375 63.734375 115.253906 63.152344 113.433594 62.132812 C 111.613281 61.109375 110.695312 58.789062 110.695312 58.789062 L 104.957031 59.851562 C 104.820312 61.601562 104.496094 63.332031 104 65.015625 C 103.292969 67.167969 102.390625 69.253906 101.300781 71.238281 C 101.300781 71.238281 106.9375 76.441406 117.335938 76 C 121.082031 75.886719 124.789062 75.203125 128.332031 73.980469 C 131.566406 60.535156 129.542969 46.359375 122.679688 34.355469 C 119.6875 34.789062 116.785156 35.710938 114.09375 37.09375 C 112.796875 37.777344 111.570312 38.597656 110.4375 39.535156 L 110.917969 27.285156 L 117.238281 26.5625 C 113.699219 22.332031 109.535156 18.664062 104.890625 15.6875 Z M 104.890625 15.6875 "/>
<path style=" stroke:none;fill-rule:nonzero;fill:rgb(98.039216%,98.039216%,98.039216%);fill-opacity:1;" d="M 120.589844 26.179688 L 124.109375 25.777344 C 121.015625 21.683594 117.421875 17.996094 113.410156 14.800781 L 113.304688 14.71875 L 109.414062 15.164062 C 113.628906 18.304688 117.386719 22.011719 120.589844 26.179688 Z M 120.589844 26.179688 "/>
<path style=" stroke:none;fill-rule:nonzero;fill:rgb(98.039216%,98.039216%,98.039216%);fill-opacity:1;" d="M 125.703125 34.09375 C 130.171875 42.453125 132.503906 51.792969 132.488281 61.277344 C 132.492188 65.113281 132.109375 68.945312 131.355469 72.707031 C 132.753906 72.027344 134.089844 71.222656 135.347656 70.304688 C 135.367188 70.15625 135.390625 70.007812 135.410156 69.859375 L 135.554688 68.671875 C 135.574219 68.476562 135.601562 68.277344 135.617188 68.078125 L 135.671875 67.484375 C 135.703125 67.089844 135.746094 66.691406 135.773438 66.296875 L 135.847656 65.105469 C 136.238281 58.730469 135.617188 52.335938 134.015625 46.152344 C 133.910156 45.769531 133.816406 45.378906 133.699219 45 L 133.363281 43.851562 C 133.121094 43.089844 132.882812 42.328125 132.609375 41.578125 C 132.351562 40.824219 132.058594 40.082031 131.769531 39.339844 L 131.3125 38.234375 C 131.164062 37.863281 130.992188 37.503906 130.835938 37.140625 C 130.402344 36.167969 129.9375 35.207031 129.449219 34.261719 C 128.609375 34.171875 127.71875 34.113281 126.757812 34.089844 C 126.410156 34.082031 126.054688 34.085938 125.703125 34.09375 Z M 125.703125 34.09375 "/>
<path style=" stroke:none;fill-rule:nonzero;fill:rgb(98.039216%,98.039216%,98.039216%);fill-opacity:1;" d="M 125.703125 34.09375 C 125.421875 34.101562 125.140625 34.113281 124.859375 34.128906 C 127.136719 38.242188 128.875 42.628906 130.039062 47.1875 C 130.402344 48.625 130.71875 50.074219 130.960938 51.539062 L 131.054688 52.085938 L 131.136719 52.636719 C 131.1875 53.003906 131.25 53.371094 131.296875 53.738281 L 131.429688 54.84375 C 131.476562 55.210938 131.5 55.582031 131.539062 55.949219 C 131.574219 56.320312 131.609375 56.6875 131.628906 57.058594 L 131.703125 58.171875 C 131.726562 58.914062 131.765625 59.65625 131.765625 60.398438 C 131.796875 61.886719 131.75 63.378906 131.667969 64.867188 L 131.59375 65.980469 C 131.566406 66.351562 131.53125 66.722656 131.496094 67.09375 L 131.445312 67.648438 C 131.425781 67.832031 131.402344 68.015625 131.378906 68.203125 L 131.25 69.308594 C 131.078125 70.5625 130.875 71.808594 130.632812 73.046875 C 130.878906 72.9375 131.117188 72.824219 131.355469 72.707031 C 132.109375 68.945312 132.488281 65.113281 132.484375 61.277344 C 132.503906 51.792969 130.171875 42.453125 125.703125 34.09375 Z M 125.703125 34.09375 "/>
<path style=" stroke:none;fill-rule:nonzero;fill:rgb(98.039216%,98.039216%,98.039216%);fill-opacity:1;" d="M 111.136719 17.601562 C 112.285156 18.558594 113.394531 19.554688 114.46875 20.589844 C 115.542969 21.625 116.566406 22.710938 117.558594 23.824219 C 118.273438 24.625 118.964844 25.449219 119.632812 26.292969 L 120.589844 26.183594 C 117.386719 22.015625 113.628906 18.308594 109.414062 15.167969 L 108.191406 15.308594 C 109.195312 16.039062 110.183594 16.800781 111.136719 17.601562 Z M 111.136719 17.601562 "/>
<path style=" stroke:none;fill-rule:nonzero;fill:rgb(2.745098%,2.745098%,2.745098%);fill-opacity:1;" d="M 67.820312 92.113281 L 66.847656 92.113281 L 66.847656 87.941406 L 67.8125 87.941406 L 67.8125 86.648438 L 63.96875 86.648438 L 63.96875 87.941406 L 64.957031 87.941406 L 64.957031 92.113281 L 63.96875 92.113281 L 63.96875 93.402344 L 67.820312 93.402344 Z M 67.820312 92.113281 "/>
<path style=" stroke:none;fill-rule:nonzero;fill:rgb(2.745098%,2.745098%,2.745098%);fill-opacity:1;" d="M 88.445312 96.308594 L 89.410156 96.308594 L 89.410156 95.015625 L 85.570312 95.015625 L 85.570312 96.308594 L 86.558594 96.308594 L 86.558594 100.480469 L 85.570312 100.480469 L 85.570312 101.769531 L 89.421875 101.769531 L 89.421875 100.480469 L 88.445312 100.480469 Z M 88.445312 96.308594 "/>
<path style=" stroke:none;fill-rule:nonzero;fill:rgb(2.745098%,2.745098%,2.745098%);fill-opacity:1;" d="M 58.96875 92.113281 L 58.203125 92.113281 L 58.203125 90.050781 L 59.972656 92.113281 L 59.308594 92.113281 L 59.308594 93.402344 L 62.988281 93.402344 L 62.988281 92.113281 L 62.308594 92.113281 L 60.1875 89.648438 L 61.980469 87.941406 L 62.820312 87.941406 L 62.820312 86.648438 L 59.449219 86.648438 L 59.449219 87.941406 L 60.050781 87.941406 L 58.203125 89.703125 L 58.203125 87.941406 L 59.042969 87.941406 L 59.042969 86.648438 L 55.453125 86.648438 L 55.453125 87.941406 L 56.316406 87.941406 L 56.316406 92.113281 L 55.453125 92.113281 L 55.453125 93.402344 L 58.96875 93.402344 Z M 58.96875 92.113281 "/>
<path style=" stroke:none;fill-rule:nonzero;fill:rgb(2.745098%,2.745098%,2.745098%);fill-opacity:1;" d="M 72.257812 93.472656 C 74.59375 93.472656 75.984375 91.917969 75.984375 90.007812 C 75.984375 88.101562 74.632812 86.546875 72.257812 86.546875 C 69.90625 86.546875 68.527344 88.097656 68.527344 90.007812 C 68.527344 91.917969 69.9375 93.472656 72.257812 93.472656 Z M 72.257812 87.90625 C 73.355469 87.90625 73.964844 88.847656 73.964844 90.011719 C 73.964844 91.171875 73.355469 92.117188 72.257812 92.117188 C 71.226562 92.117188 70.546875 91.171875 70.546875 90.011719 C 70.546875 88.847656 71.207031 87.902344 72.257812 87.902344 Z M 72.257812 87.90625 "/>
<path style=" stroke:none;fill-rule:nonzero;fill:rgb(2.745098%,2.745098%,2.745098%);fill-opacity:1;" d="M 96.507812 90.007812 C 96.507812 88.09375 95.15625 86.542969 92.777344 86.542969 C 90.429688 86.542969 89.046875 88.097656 89.046875 90.007812 C 89.046875 91.917969 90.457031 93.46875 92.777344 93.46875 C 95.117188 93.472656 96.507812 91.917969 96.507812 90.007812 Z M 91.070312 90.007812 C 91.070312 88.839844 91.726562 87.902344 92.777344 87.902344 C 93.875 87.902344 94.484375 88.84375 94.484375 90.007812 C 94.484375 91.167969 93.875 92.113281 92.777344 92.113281 C 91.746094 92.113281 91.070312 91.167969 91.070312 90.007812 Z M 91.070312 90.007812 "/>
<path style=" stroke:none;fill-rule:nonzero;fill:rgb(2.745098%,2.745098%,2.745098%);fill-opacity:1;" d="M 77.96875 90.394531 C 78.398438 90.578125 78.804688 90.808594 79.179688 91.078125 C 79.320312 91.199219 79.394531 91.375 79.390625 91.5625 C 79.382812 91.746094 79.296875 91.914062 79.152344 92.027344 C 78.890625 92.277344 78.375 92.117188 78.105469 91.847656 C 77.929688 91.59375 77.835938 91.285156 77.847656 90.972656 L 76.546875 90.972656 L 76.546875 93.40625 L 77.859375 93.40625 L 77.859375 93 C 78.203125 93.304688 78.648438 93.472656 79.109375 93.46875 C 79.644531 93.496094 80.171875 93.292969 80.546875 92.90625 C 80.925781 92.515625 81.117188 91.988281 81.078125 91.449219 C 81.113281 90.898438 80.910156 90.363281 80.523438 89.972656 C 79.960938 89.527344 79.335938 89.171875 78.664062 88.921875 C 78.101562 88.664062 77.96875 88.355469 78.144531 88.066406 C 78.324219 87.777344 78.941406 87.808594 79.21875 88.128906 C 79.386719 88.320312 79.476562 88.566406 79.46875 88.820312 L 80.757812 88.820312 L 80.757812 86.648438 L 79.453125 86.648438 L 79.453125 87.039062 C 78.96875 86.589844 78.265625 86.460938 77.652344 86.707031 C 77.203125 86.882812 76.839844 87.226562 76.636719 87.664062 C 76.457031 88.191406 76.460938 88.765625 76.65625 89.289062 C 76.976562 89.777344 77.433594 90.160156 77.96875 90.394531 Z M 77.96875 90.394531 "/>
<path style=" stroke:none;fill-rule:nonzero;fill:rgb(2.745098%,2.745098%,2.745098%);fill-opacity:1;" d="M 98.46875 90.394531 C 98.894531 90.578125 99.300781 90.808594 99.679688 91.078125 C 99.816406 91.199219 99.894531 91.375 99.886719 91.558594 C 99.882812 91.746094 99.796875 91.914062 99.652344 92.027344 C 99.390625 92.277344 98.875 92.117188 98.605469 91.847656 C 98.425781 91.59375 98.335938 91.285156 98.347656 90.972656 L 97.046875 90.972656 L 97.046875 93.40625 L 98.355469 93.40625 L 98.355469 93 C 98.703125 93.304688 99.148438 93.472656 99.605469 93.46875 C 100.144531 93.5 100.671875 93.292969 101.046875 92.90625 C 101.425781 92.519531 101.617188 91.988281 101.574219 91.449219 C 101.609375 90.898438 101.410156 90.363281 101.019531 89.972656 C 100.460938 89.527344 99.832031 89.171875 99.160156 88.921875 C 98.601562 88.664062 98.46875 88.355469 98.644531 88.066406 C 98.820312 87.777344 99.4375 87.808594 99.71875 88.128906 C 99.886719 88.320312 99.972656 88.566406 99.96875 88.820312 L 101.257812 88.820312 L 101.257812 86.648438 L 99.953125 86.648438 L 99.953125 87.039062 C 99.464844 86.589844 98.765625 86.460938 98.148438 86.707031 C 97.699219 86.882812 97.335938 87.226562 97.136719 87.664062 C 96.953125 88.191406 96.960938 88.765625 97.15625 89.289062 C 97.476562 89.777344 97.933594 90.160156 98.46875 90.394531 Z M 98.46875 90.394531 "/>
<path style=" stroke:none;fill-rule:nonzero;fill:rgb(2.745098%,2.745098%,2.745098%);fill-opacity:1;" d="M 101.3125 94.917969 C 98.960938 94.917969 97.582031 96.46875 97.582031 98.378906 C 97.582031 100.289062 98.992188 101.84375 101.3125 101.84375 C 103.648438 101.84375 105.039062 100.289062 105.039062 98.378906 C 105.039062 96.46875 103.6875 94.917969 101.3125 94.917969 Z M 101.3125 100.484375 C 100.28125 100.484375 99.605469 99.542969 99.605469 98.378906 C 99.605469 97.214844 100.261719 96.273438 101.3125 96.273438 C 102.410156 96.273438 103.019531 97.214844 103.019531 98.378906 C 103.019531 99.542969 102.410156 100.484375 101.3125 100.484375 Z M 101.3125 100.484375 "/>
<path style=" stroke:none;fill-rule:nonzero;fill:rgb(2.745098%,2.745098%,2.745098%);fill-opacity:1;" d="M 107.542969 97.292969 C 106.980469 97.035156 106.847656 96.726562 107.023438 96.4375 C 107.203125 96.144531 107.820312 96.175781 108.097656 96.5 C 108.265625 96.691406 108.355469 96.9375 108.347656 97.191406 L 109.636719 97.191406 L 109.636719 95.019531 L 108.332031 95.019531 L 108.332031 95.410156 C 107.847656 94.957031 107.144531 94.828125 106.53125 95.078125 C 106.082031 95.253906 105.71875 95.597656 105.515625 96.035156 C 105.335938 96.5625 105.339844 97.136719 105.535156 97.660156 C 105.855469 98.148438 106.316406 98.53125 106.851562 98.761719 C 107.277344 98.945312 107.683594 99.175781 108.0625 99.445312 C 108.203125 99.566406 108.277344 99.746094 108.273438 99.929688 C 108.265625 100.113281 108.179688 100.285156 108.035156 100.398438 C 107.773438 100.648438 107.257812 100.488281 106.988281 100.214844 C 106.8125 99.960938 106.71875 99.652344 106.730469 99.339844 L 105.429688 99.339844 L 105.429688 101.773438 L 106.742188 101.773438 L 106.742188 101.371094 C 107.085938 101.675781 107.53125 101.84375 107.988281 101.839844 C 108.527344 101.867188 109.054688 101.664062 109.429688 101.277344 C 109.808594 100.890625 110 100.359375 109.960938 99.820312 C 109.996094 99.269531 109.792969 98.734375 109.40625 98.34375 C 108.84375 97.898438 108.214844 97.542969 107.542969 97.292969 Z M 107.542969 97.292969 "/>
<path style=" stroke:none;fill-rule:nonzero;fill:rgb(2.745098%,2.745098%,2.745098%);fill-opacity:1;" d="M 88.496094 91.039062 L 87.019531 90.316406 C 86.984375 90.632812 86.882812 90.9375 86.714844 91.207031 C 86.433594 91.742188 85.878906 92.078125 85.273438 92.074219 C 84.679688 92.078125 84.128906 91.769531 83.824219 91.257812 C 83.40625 90.496094 83.398438 89.570312 83.804688 88.800781 C 84.09375 88.214844 84.703125 87.855469 85.355469 87.882812 C 86.105469 87.878906 86.761719 88.394531 86.929688 89.128906 L 88.203125 89.128906 L 88.203125 86.648438 L 86.90625 86.648438 L 86.90625 87.070312 C 86.355469 86.695312 85.699219 86.511719 85.035156 86.542969 C 83.824219 86.503906 82.679688 87.089844 82.007812 88.097656 C 81.421875 89.191406 81.355469 90.488281 81.835938 91.632812 C 82.277344 92.535156 83.148438 93.472656 85.179688 93.472656 C 86.730469 93.585938 88.136719 92.554688 88.496094 91.039062 Z M 88.496094 91.039062 "/>
<path style=" stroke:none;fill-rule:nonzero;fill:rgb(2.745098%,2.745098%,2.745098%);fill-opacity:1;" d="M 78.742188 96.117188 L 78.742188 97.828125 L 80.03125 97.828125 L 80.03125 96.304688 L 80.863281 96.304688 L 80.863281 100.457031 L 79.882812 100.457031 L 79.882812 101.769531 L 83.71875 101.769531 L 83.71875 100.457031 L 82.738281 100.457031 L 82.738281 96.304688 L 83.570312 96.304688 L 83.570312 97.828125 L 84.859375 97.828125 L 84.859375 95.015625 L 78.742188 95.015625 Z M 78.742188 96.117188 "/>
<path style=" stroke:none;fill-rule:nonzero;fill:rgb(2.745098%,2.745098%,2.745098%);fill-opacity:1;" d="M 64.113281 96.308594 L 64.878906 96.308594 L 64.878906 100.457031 L 64.113281 100.457031 L 64.113281 101.769531 L 70.054688 101.769531 L 70.054688 99.480469 L 68.644531 99.480469 L 68.644531 100.457031 L 66.777344 100.457031 L 66.777344 98.929688 L 68.40625 98.929688 L 68.40625 97.636719 L 66.777344 97.636719 L 66.777344 96.308594 L 68.644531 96.308594 L 68.644531 97.289062 L 70.054688 97.289062 L 70.054688 95.015625 L 64.113281 95.015625 Z M 64.113281 96.308594 "/>
<path style=" stroke:none;fill-rule:nonzero;fill:rgb(2.745098%,2.745098%,2.745098%);fill-opacity:1;" d="M 46.867188 96.308594 L 47.703125 96.308594 L 47.703125 95.015625 L 43.253906 95.015625 L 43.253906 96.308594 L 44.101562 96.308594 L 42.851562 100.457031 L 42.050781 100.457031 L 42.050781 101.769531 L 45.117188 101.769531 L 45.117188 100.457031 L 44.289062 100.457031 L 44.570312 99.535156 L 46.132812 99.535156 L 46.386719 100.457031 L 45.578125 100.457031 L 45.578125 101.769531 L 48.972656 101.769531 L 48.972656 100.457031 L 48.1875 100.457031 Z M 44.921875 98.378906 L 45.386719 96.839844 L 45.8125 98.378906 Z M 44.921875 98.378906 "/>
<path style=" stroke:none;fill-rule:nonzero;fill:rgb(2.745098%,2.745098%,2.745098%);fill-opacity:1;" d="M 54.742188 98.617188 C 55.453125 98.324219 55.890625 97.605469 55.832031 96.835938 C 55.804688 96.316406 55.566406 95.828125 55.171875 95.484375 C 54.78125 95.140625 54.265625 94.972656 53.746094 95.015625 L 49.605469 95.015625 L 49.605469 96.308594 L 50.507812 96.308594 L 50.507812 100.457031 L 49.605469 100.457031 L 49.605469 101.769531 L 53.203125 101.769531 L 53.203125 100.457031 L 52.390625 100.457031 L 52.390625 98.882812 L 52.984375 98.882812 L 54.472656 101.769531 L 56.605469 101.769531 L 56.605469 100.457031 L 55.734375 100.457031 Z M 53.003906 97.65625 L 52.394531 97.65625 L 52.394531 96.308594 L 53.105469 96.308594 C 53.300781 96.28125 53.496094 96.339844 53.640625 96.46875 C 53.789062 96.601562 53.871094 96.785156 53.867188 96.980469 C 53.863281 97.355469 53.5625 97.65625 53.003906 97.65625 Z M 53.003906 97.65625 "/>
<path style=" stroke:none;fill-rule:nonzero;fill:rgb(2.745098%,2.745098%,2.745098%);fill-opacity:1;" d="M 60.65625 98.25 L 60.65625 99.5625 L 61.75 99.5625 C 61.5625 100.136719 61.007812 100.507812 60.410156 100.457031 C 59.292969 100.457031 58.511719 99.558594 58.511719 98.273438 C 58.472656 97.761719 58.644531 97.253906 58.988281 96.875 C 59.332031 96.492188 59.8125 96.265625 60.324219 96.246094 C 61.125 96.226562 61.835938 96.753906 62.058594 97.523438 L 63.347656 97.523438 L 63.347656 95.015625 L 62.042969 95.015625 L 62.042969 95.46875 C 61.46875 95.066406 60.777344 94.875 60.078125 94.917969 C 58.933594 94.859375 57.835938 95.382812 57.15625 96.308594 C 56.503906 97.300781 56.34375 98.539062 56.71875 99.664062 C 57.101562 100.796875 58.257812 101.847656 60.277344 101.847656 C 62.296875 101.847656 63.371094 100.707031 63.679688 99.84375 C 63.863281 99.332031 63.9375 98.792969 63.898438 98.25 Z M 60.65625 98.25 "/>
<path style=" stroke:none;fill-rule:nonzero;fill:rgb(2.745098%,2.745098%,2.745098%);fill-opacity:1;" d="M 75.164062 96.308594 L 76.035156 96.308594 L 76.035156 98.894531 L 73.742188 95.015625 L 70.859375 95.015625 L 70.859375 96.308594 L 71.734375 96.308594 L 71.734375 100.457031 L 70.859375 100.457031 L 70.859375 101.769531 L 73.902344 101.769531 L 73.902344 100.457031 L 73.082031 100.457031 L 73.082031 97.1875 L 75.761719 101.816406 L 77.382812 101.816406 L 77.382812 96.308594 L 78.289062 96.308594 L 78.289062 95.015625 L 75.160156 95.015625 Z M 75.164062 96.308594 "/>
<path style=" stroke:none;fill-rule:nonzero;fill:rgb(2.745098%,2.745098%,2.745098%);fill-opacity:1;" d="M 97.742188 95.015625 L 94.609375 95.015625 L 94.609375 96.308594 L 95.480469 96.308594 L 95.480469 98.894531 L 93.191406 95.015625 L 90.304688 95.015625 L 90.304688 96.308594 L 91.183594 96.308594 L 91.183594 100.457031 L 90.308594 100.457031 L 90.308594 101.769531 L 93.351562 101.769531 L 93.351562 100.457031 L 92.53125 100.457031 L 92.53125 97.1875 L 95.210938 101.816406 L 96.832031 101.816406 L 96.832031 96.308594 L 97.738281 96.308594 Z M 97.742188 95.015625 "/>
</g>
</svg>
