<?xml version="1.0" encoding="utf-8"?>
<!-- Generator: Adobe Illustrator 22.0.1, SVG Export Plug-In . SVG Version: 6.00 Build 0)  -->
<svg version="1.1" id="Layer_1" xmlns="http://www.w3.org/2000/svg" xmlns:xlink="http://www.w3.org/1999/xlink" x="0px" y="0px"
	 viewBox="0 0 1080 1080" style="enable-background:new 0 0 1080 1080;" xml:space="preserve">
<style type="text/css">
	.st0{clip-path:url(#SVGID_2_);}
	.st1{clip-path:url(#SVGID_2_);fill:#FFFFFF;}
</style>
<g>
	<defs>
		<rect id="SVGID_1_" width="1080" height="1080"/>
	</defs>
	<clipPath id="SVGID_2_">
		<use xlink:href="#SVGID_1_"  style="overflow:visible;"/>
	</clipPath>
	<path class="st0" d="M370.4,544.1c-0.9-0.2-2.3-0.1-2.6-0.6c-1.5-2.5-4.1-2.9-6.5-3.9c-3-1.2-6.1-2.3-9.2-3.4
		c-0.9-0.3-1.9-0.3-3.6-0.5c1.3,2,2.1,3.4,3,4.8c0.7,1.1,1.7,2,2.2,3.1c2.1,4.1,1.4,5.8-3.1,7.3c-0.6,0.2-1.3,0.3-2.5,0.6
		c0.9-1,1.4-1.5,2.4-2.5c-1.7-0.2-2.9-0.3-4.1-0.4c-1.3-0.1-2.5-0.3-4.2-0.5c-0.2,1.1-0.5,2.1-0.5,3.2c-0.1,1.7,0.4,3.4-1.2,4.7
		c-0.4,0.4-0.5,1.3-0.5,2c0.1,4.8-0.7,9.6,0.4,14.5c0.6,3-1,6.4-1.2,9.7c-0.3,5.6-2.7,10.7-3.1,16.2c-0.6,9.4-0.9,18.8-1.4,28.3
		c-0.4,7.7-0.9,15.4-1.4,23.1c-0.1,1.5-0.1,3.2-1.9,3.8c0-3.7-0.1-7.3,0-10.9c0.1-3.1,0.6-6.3,0.8-9.4c0.1-1.7,0-1.7-2.7-2
		c1.5,8.6-0.8,16.9-1.9,26c-1.6-7.1-1.1-13.7-0.8-20.2c0.1-2.4,0.4-4.8,0.4-7.2c0-1.7,0.4-3.8-2.1-5.1c-0.2,1-0.5,1.7-0.6,2.4
		c-0.1,2.7,0,5.4-0.2,8.2c-0.3,4.6-1.5,5.4-5.9,3.8c-0.9,3-1.7,5.9,0.4,8.8c1.6,2.2,0.5,4.5-2.6,6.5c-1,0.6-2.9,0-2.9,1.9
		c0,1.1,0.6,2.1,0.7,3.2c0.7,6.9,3.3,13.5,2.6,20.6c-0.1,0.8-0.3,1.7-0.5,2.9c-0.7-0.5-1.2-0.8-1.7-1.1c-3.5,4-5.5,9.6-11.9,11.2
		c-1.9-4.3-5.2-8.2-2.3-13.4c-1.5-0.1-2.9,0.2-3.9-0.3c-0.8-0.5-1.6-1.9-1.5-2.9c0.2-1.3,1-2.6,1.8-3.7c1.1-1.5,2.5-2.8,1.5-5.3
		c-2,1.4-4.1,2.4-5.6,4c-0.9,1-1.4,2.9-1.3,4.3c0.4,6,0.8,12,1.6,18c0.8,5.4,0.9,6.1-0.9,10.8c1.7,3.1,1.7,3.1-0.4,4.6
		c-0.3-1-0.5-1.9-0.8-2.7c-1.5-0.4-3.2-0.3-4.2-1.2c-1-0.8-1.4-2.4-2.3-4.2c-1.9,1.5-3.6,2.9-5.4,4.4c-0.3-1-0.6-1.9-1.1-3.3
		c-1.1,1.6-1.9,2.6-2.9,4.1c-0.3-1.1-0.9-2-0.6-2.5c1-1.8,3.3-2.7,3.7-5c4.4-1.5,4.9-5.6,5.9-9.2c1-3.5,1.4-7.2,4-10.2
		c0.9-1,0.8-2.9,1.3-5c-3.2,1.2-5.6,2.1-7.7,4.1c-2.8,2.6-6.2,4.5-10.4,3.8c-1.9-0.3-3.1-1.1-3.6-3.1c-0.5-2-2.2-3.6-1.6-6.9
		c1.2,2,2,3.2,2.9,4.7c2-2.2,0.7-4.6,1.3-6.7c0.6-2.1,1.2-4.3,1.9-6.9c-6.5,0-4.7-6.3-7.8-8.7c-0.2-4.1,0.6-7.9,3.5-11.1
		c-0.9-1-1.6-1.8-2.5-2.7c1-5.1,2.4-10.2,3-15.4c0.8-6.2,1-12.5,1.6-18.7c0.1-1,0-2.3,0.5-2.8c2.8-2.5,2.6-5.9,2.9-9.1
		c0.5-4.4,0.8-8.8,1.3-13.5c0.7,0.5,1.1,0.8,1.7,1.3c1.2-1.4,1.2-3,1.3-4.7c0.2-2.6,0.6-5.1,0.9-7.7c0.1-0.7,0.1-1.5,0.5-2
		c4.7-6.2,4.2-13.6,4.5-20.8c0-0.4-0.3-0.8-0.5-1.4c-1-0.2-2.1-0.3-3.2-0.5c-0.7-0.1-1.8,0.2-2.1-0.2c-2.5-3.1-6.1-1.6-9.1-2.5
		c-3.2-0.9-6.5-2.2-9.8-2.6c-9.5-1.2-19-2.1-29-1.7c-0.2,1.3-0.7,2.5-0.7,3.7c0.1,4.3,0.3,8.5,0.4,12.8c0,0.1,0.1,0.3,0,0.4
		c-0.8,3.7-1.3,7.3-0.1,11.3c1.1,3.5,0.2,7.7,0.2,11.8c-0.3-0.7-0.6-1.1-1-2c-0.5,1-1.3,1.8-1.3,2.6c-0.4,4.4-0.6,8.8-1,13.2
		c-0.2,2.1-0.6,4.2-0.8,6.4c-0.4,6-0.8,12-1,18c-0.3,13.5-0.5,26.9-0.7,40.4c0,1-0.1,2-0.2,3c-0.9,8.1-2,16.2-2.8,24.3
		c-0.6,5.3-0.9,10.5-1.4,15.8c-0.1,1.5-0.4,3.1-0.7,4.7c-2.4-2-3.3-4.5-4.5-7.1c-1.3-2.7-1.8-5.3-2.2-8c-0.1-0.4,0-1.1-0.2-1.2
		c-3.9-2.7-2.3-7-3-10.6c-1.2-6-0.9-12.1-2.4-18.2c-1.2-5.3-0.3-11.1-0.2-16.7c0.1-5.3,0.4-10.6,0.4-15.9c0-1.6,0.5-3.6-1.7-4.7
		c-0.5-0.2-0.6-1.5-0.6-2.3c-0.4-9.2-0.7-18.3-1-27.5c-0.2-5.1-0.5-10.2-1.5-15.4c-0.2,1-0.4,2.1-0.7,3.1c-0.2,0.8-0.4,2.2-0.8,2.3
		c-2.8,0.7-2.2,2.8-2.2,4.7c0,12.6-0.1,25.2-0.2,37.8c0,1.8-0.5,3.7-1.2,5.4c-2.1,5.5-1.3,11.3-1.5,17c0,2,0,4,0,6.1
		c-1.1,0.2-2.1,0.4-3.3,0.6c-0.2-0.4-0.5-0.7-0.5-1.1c-0.4-4.7-1.1-9.4-1-14.1c0.1-4.9-2.6-8.9-3.9-14.2c-1.1,2.1-1.7,3.4-2.4,4.7
		c-0.3,0-0.5,0-0.8,0c-0.1-4-0.5-8.1-0.3-12.1c0.3-6.2,0.4-12.2-0.7-18.4c-1.1-6.1-0.8-12.5-1.3-18.7c-0.4-4.8-0.1-9.5-2.2-14.2
		c-1.3-2.9-1.1-6.7-1.1-10.1c0.1-4.6,0.9-9.1,0.9-13.7c0-2.3-0.9-4.6-1.4-6.9c-0.3,0-0.6,0.1-0.9,0.1v74.8c-0.2,0-0.3,0-0.5,0
		c-0.1-3.4-0.4-6.7-0.4-10.1c-0.2-8.6-0.3-17.1-0.4-25.7c0-4.2,0-8.5-0.6-12.7c-1.6,4.5-1.3,9.3-1.8,14.2c-1.5-2.7-2-15.3-1.1-28
		c1.3,0.9-0.5,3.3,1.7,3.9c-0.3-5.7-0.5-11.4-0.8-17.5c-9-0.5-17.9-0.8-26.8-1.5c-8.8-0.7-17.6-1.6-27.1-2.5
		c0.8-1.2,1.1-2.2,1.6-2.3c6.5-1.7,12.7-4.7,19.7-4.8c3.3,0,6.5-0.9,9.7-1.4c4.4-0.7,8.8-0.4,13.3,0c2.8,0.3,5.6,0,8.4,0
		c1.5-5.2,1-6.3-3.7-7.1c-3.5-0.6-7.1-0.3-10.7-0.5c-1.4,0-3,0.4-3.4-1.9c3-1.6,6.4-0.6,9.5-1.2c3-0.6,6.1-1.2,8.8-1.7
		c0.2-1.6,0.2-2.6,0.4-3.5c0.2-0.9,0.9-1.8,0.8-2.6c-0.3-3.4-1.1-6.8-1.1-10.1c-0.1-3.8,0.5-7.7,0.8-11.5c0-0.3,0.3-0.5,0.3-0.8
		c-0.9-6.8,2.1-13.1,2-19.9c-0.3-15.3-0.2-30.6-0.2-45.9c0-3.3,0.2-6.6,0.4-9.8c0.1-1.5,0.7-2.9,1-4.3c0.3,0,0.6,0,0.9,0
		c0.2,0.6,0.5,1.2,0.5,1.8c-0.1,6.8-0.3,13.7-0.5,20.5c-0.1,2.1,0.4,3.4,2.9,2.6c-2.4-9.8,0.2-19.4,0.5-29.1
		c1.6,7.5,1.9,15.1,1.8,22.7c0,3.1,0,6.3,0.1,9.4c0.1,2,0.1,2,2.3,4.2c0.2-1.2,0.4-2.1,0.4-2.9c0-3.4-0.2-6.9,0-10.3
		c0.1-1.6,0.8-3.1,1.3-5c1.7,0.8,2.8,1.2,4.3,1.9c0.6-3.8,1.6-7.2-1.1-10.4c-1.4-1.6-0.7-3.4,0.1-4.8c0.8-1.2,2.1-2.5,3.4-2.9
		c2.5-0.8,2-2.4,1.7-4.1c-0.3-1.8-0.7-3.5-1.2-5.3c-0.7-2.7-1.8-5.4-2.2-8.1c-0.6-4-0.8-8-1-12c0-0.8,0.4-1.6,0.7-2.8
		c0.5,0.8,0.8,1.3,1.2,2c3.6-4.6,4.9-11.1,11.8-13.5c1.9,4.9,5.8,9.2,2.3,15.6c2.3-0.3,4-2,5.3,0.3c1,2,0.9,3.7-0.3,5.6
		c-1.2,2-3.3,3.8-1.9,6.9c4-2.6,7.4-5.2,6.5-10.8c-1.1-6.8-1.7-13.6-2.8-20.4c-0.6-3.7-0.2-7.1,1.2-10.4c-1.9-3.5-1.9-3.5,0.1-5.3
		c0.4,1.1,0.7,2.2,1,3c1.4,0.3,3.2,0.1,4.1,0.9c1.1,0.9,1.4,2.7,2,4c3.1,0.6,3.1-2.7,5.3-3.6c0.5,0.7,1.1,1.4,2,2.8
		c0.8-1.6,1.5-2.9,2.2-4.4c1.7,1.6,1.4,3.3-0.1,4.1c-2.2,1.1-0.9,4.8-4.1,4.8c-1,2-2.1,4-2.9,6.1c-0.6,1.4-0.7,3-1,4.6
		c-0.7,3.6-1.2,7.2-3.3,10.4c-1,1.5-0.9,3.7-1.5,6.5c3.4-2.2,6-3.5,8.2-5.9c2.7-2.9,6.1-5.3,10.6-4.1c1.3,0.4,2.2,0.9,2.7,2.4
		c0.7,2.4,1.7,4.7,2.6,7c-0.3,0.2-0.6,0.3-0.9,0.5c-0.8-1.3-1.6-2.5-2.7-4.2c-2,2.6-0.6,5.2-1,7.6c-0.5,2.4-1,4.9-1.6,7.7
		c3.8,0.2,5.7,1.9,5.9,5.3c0,0.5,0.2,1.2,0.6,1.6c4.1,5.3,1.2,10-1.1,15.3c0.6,0.6,1.5,1.4,2.3,2.2c-0.2,8.7-3.1,17.1-2.4,25.9
		c0.4,4.8-0.2,9.6-0.4,14.4c0,0.7-0.1,1.6-0.6,2c-2.4,1.9-2,4.6-2.2,7.1c-0.3,6-0.5,11.9-0.8,18.1c-0.7-0.5-1.2-0.9-2.2-1.7
		c-0.2,2.5-0.4,4.4-0.6,6.4c-0.2,2.7-0.3,5.4-0.6,8.1c-0.2,1.3-0.8,2.6-1.5,3.8c-1.3,2.2-0.9,3.4,1.5,4.1c4.5,1.4,9.1,0.6,13.6,0.7
		c2.7,0.1,5.4,0.5,8,0.5c3.6,0.1,7.1-0.1,10.7-0.1c1.8,0,3.7-0.2,5.5,0.1c4.5,0.5,9,1.2,14,1.9c0.4-3.1,0.8-6.3,1.2-9.6
		c0.3,0.6,0.5,1.1,0.9,2.1c0.6-1,1.2-1.7,1.4-2.6c1.1-6.6,2.4-13.1,3.2-19.8c0.9-7.5,1.5-15.1,2-22.7c0.6-8.7,1-17.4,1.6-26.1
		c0.1-2.1,0.7-4.2,1.1-6.3c0.6-3.2,1.1-6.4,1.6-9.7c0.9-6.1,1.7-12.2,2.6-18.2c0.4-2.4,0.8-4.8,1.3-7.5c2.3,1.4,3.3,3,4.3,5.7
		c0.9,2.7,2.1,5.2,2.1,8.1c0,0.1,0,0.3,0.1,0.4c4.1,5.1,2.4,11.3,3.2,17.1c0.4,2.7,0.8,5.3,1.2,8c0.2,1.6,0.3,3.3,0.7,5
		c1.4-2.7,1.5-5.6,1.9-8.4c0.2-1.6,0.8-3.2,1.2-4.8c0.4-1.7,1-3.3,1.2-5c1.4-11.7,2.5-23.3,4.1-35c0.8-6.2,2.2-12.4,3.4-18.6
		c0.9-5,1.9-10.1,3.6-15.3c0.5,0.9,1.3,1.7,1.6,2.6c2.3,7.8,3.3,15.8,2.8,24c-0.1,2,0.6,4,0.5,6c-0.2,4-0.7,8-1.1,11.9
		c-0.5,4.8-1.5,9.4-0.5,14.4c0.8,4.2-0.1,8.8-0.4,13.3c-0.3,5.3-0.6,10.5-0.7,15.9c1.4-2.3,3.3-4.2,3.4-7.3c0.3-6.4,1.2-12.8,2-19.2
		c0.3-2.7,0.9-5.4,1.7-7.9c1.5-4.5,2-9.2,2.4-13.9c0.1-1.3-0.4-3.1,2.5-3c0.8,6.4-1.1,13,1.7,19.5c0.5-0.2,1.1-0.5,2.4-1
		c-1.9,15-1.5,29.7-1.8,44.3c1.8,0.1,2.8,0.1,3.9,0.2c0.4-1.8,0.9-4,1.4-6.2c0.2,0,0.3,0,0.5,0c-0.4,4.8-0.7,9.7-1.2,14.5
		c-0.4,3.6-0.8,7.3-1.6,10.9c-1.3,5.9-1.1,11.9-2,17.8c-0.5,3.6-1.7,7.1-1.9,10.8c-0.4,6.4-0.9,12.7-1.2,19.1
		c-0.1,1.6,0.6,3.2,1.1,5.3c-0.8,0.9-1.6,2.6-0.4,5.3c2.2,0.1,4.7,0.3,7.2,0.2c3.2-0.2,3.9,3,6.1,4.1c2.3,1.1,4.5,2.6,4.8,5.8
		c-3.2,1.2-6.1,3.2-9.9,1.2c-0.2,2.3-1.1,3.9-3.5,3.3c-1.7-0.5-3.2-1.5-5-2.4c0.3,3.8,1.4,5,4.9,5.1c4.7,0,9.4-0.4,14.2-0.6
		c2-0.1,4,0,6,0.1c1.7,0.1,3.5,0.4,5.4,0.6c-1.6,1.6-1.9,4.6-5.6,5.1c0.9,1.5,1.6,2.6,2.3,3.7C371.4,543.4,370.9,543.8,370.4,544.1
		L370.4,544.1z M231.7,480.7c0.4,0.1,0.8,0.1,1.3,0.2c0.2-1.3,0-2.8,0.6-3.9c0.5-1,1.9-1.7,2.8-2.5c0.2-0.1,0.1-0.5,0.2-0.8
		c0.2-4.8,0.4-9.7,0.6-14.5c0.1-1.8-0.9-2.5-2.5-2.8C231.2,464.3,232.9,472.6,231.7,480.7 M204.7,576.7c0.3,0,0.7-0.1,1-0.1
		c1.4-5.9,0.4-11.9,0.5-17.8c0.1-4.9-0.5-9.8-2.5-14.4c-0.8,1.9-1.3,3.8-1.3,5.7c0,2.1,0.7,4.2,0.8,6.3c0.3,6,0.4,11.9,0.7,17.9
		C204,575.1,204.4,575.9,204.7,576.7 M275.4,585.1c-0.6,4.3-1.2,8-1.4,11.7c-0.1,1.8-0.8,4.2,1.9,5c2.7-3.9,5-18.7,3.3-21.7
		C278.1,582,279.8,585.8,275.4,585.1 M205.4,579.1c-1.5,3.3-1.3,12.7,0.3,18.6c0.5-6.1,0.9-11.5,1.2-17
		C207,580.3,206,579.7,205.4,579.1 M179.3,431.9c-1.1-0.5-1.8,0-1.9,1.3c-0.1,3.7-0.3,7.3-0.2,11c0,0.5,1.1,1,2.1,1.9V431.9z
		 M331.4,614.2c-0.2,4.5-0.4,8.4-0.7,12.5c0.5-0.3,1.5-0.5,1.5-0.9c0.4-3.4,0.7-6.8,0.9-10.3C333.1,615.2,332.2,614.8,331.4,614.2
		 M345,458.4c0.5,0.1,1,0.2,1.5,0.3c0.3-4,1.7-7.9,1-12c-0.3,0-0.6-0.1-0.9-0.1C346.1,450.6,345.6,454.5,345,458.4 M189.8,433.1
		c2.5-4.6,2.5-6-0.1-9C188.5,427.7,188.5,428.1,189.8,433.1 M329.3,442.5c1.4-3.5,1.6-9.6,0.3-12.8
		C328.4,434.2,328.6,438.1,329.3,442.5 M320.4,624.9c-3.1,2.9-2.5,5.5-0.7,8.5C321.4,630.6,320.9,628,320.4,624.9 M284.6,543.5
		c-0.2-0.5-0.3-0.9-0.5-1.4c-1.3-0.1-2.7-0.3-3.9-0.1c-0.4,0-0.6,1.2-0.9,1.8c1,0.4,2,1.1,3,1.1C283.1,545,283.8,544.1,284.6,543.5
		 M329.4,426.7c0.4,0.1,0.9,0.1,1.3,0.2c0.3-3,0.6-5.9,0.9-8.9l-1.1-0.2C330.1,420.8,329.7,423.8,329.4,426.7 M179.9,451.5l-0.4-0.2
		v7.2h0.4V451.5z M323.9,614.9l1.1,0v-3.7c-0.2,0-0.4,0-0.5-0.1C324.3,612.4,324.1,613.6,323.9,614.9 M324,621.9
		c0.2,0.1,0.4,0.1,0.6,0.2c0.2-0.4,0.6-0.8,0.7-1.3c0.1-0.6-0.2-1.1-0.3-1.7c-0.2,0-0.4,0-0.7,0.1C324.2,620.1,324.1,621,324,621.9
		 M234.3,375c-0.7-0.7-1-1.3-1.4-1.4c-0.4-0.1-0.9,0.4-1.3,0.6c0.3,0.4,0.5,1,0.9,1.1C232.9,375.5,233.4,375.2,234.3,375 M328.4,616
		c-0.2,0-0.4,0.1-0.7,0.1c0.1,0.7,0.2,1.4,0.3,2.1c0.2,0,0.4-0.1,0.6-0.1C328.6,617.4,328.5,616.7,328.4,616 M185.5,448.4
		c0.2,0,0.4-0.1,0.5-0.1v-3.9c-0.2,0-0.4,0-0.5,0V448.4z M330.9,610.3c0.1,0,0.3,0,0.4,0v-3.2h-0.4V610.3z M185.2,439.7
		c0.2,0,0.5,0,0.7,0v-3.3c-0.2,0-0.5,0-0.7,0V439.7z M276.2,674.9c-0.6-0.4-1-0.8-1.4-0.9c-0.2-0.1-0.6,0.4-0.9,0.6
		c0.3,0.4,0.6,0.8,1.1,1C275.1,675.8,275.6,675.3,276.2,674.9"/>
	<path class="st0" d="M231.1,321.8h2.8c0.5,1.4,1,2.8,1.5,4.3c-1.4,3.4-2.9,6.8-4.4,10.2c-0.2-0.1-0.4-0.1-0.6-0.2
		c0.1-0.7,0.2-1.3,0.4-2c0.6-2,1.7-4.1,1.8-6.1C232.6,326.1,231.6,324,231.1,321.8"/>
	<path class="st0" d="M275.3,721.9H272c-1.5-2.6-1.3-4.9,0.5-7.4c1.3-1.7,1.9-3.9,2.8-5.8c0.3,0.1,0.6,0.2,0.8,0.4
		c-0.3,1-0.5,2.1-1,3.1C273.7,715.1,272.6,718.1,275.3,721.9"/>
	<path class="st0" d="M183.2,380.3c0,2.1,0.2,4-0.1,5.9c-0.2,1.9,2.9,3.4,0.5,5.4C180.5,387.5,180.3,384.3,183.2,380.3"/>
	<path class="st0" d="M169.7,401c0.9,2.5,1.5,4.1,2,5.8c0.2,0.6,0.3,1.5,0,2.1c-0.4,0.8-1.2,1.4-1.8,2c-0.5-0.8-1.4-1.5-1.3-2.3
		C168.8,406.4,169.2,404.1,169.7,401"/>
	<path class="st0" d="M325.2,661.5c1.4,4,3,7.5-1,11.1c0.2-2.3,0.3-4.3,0.6-6.1C325.1,664.9,322,663.5,325.2,661.5"/>
	<path class="st0" d="M348.7,434.8c0.4-3.9,0.8-7.8,1.3-11.7C351.5,427.2,351.2,431.1,348.7,434.8"/>
	<path class="st0" d="M338.9,653.6c-0.7-1.7-1.3-3-1.6-4.2c-0.2-0.8-0.4-1.7-0.1-2.4c0.3-0.6,1.2-1,1.8-1.5c0.4,0.7,1.2,1.4,1.2,2
		C339.9,649.4,339.4,651.3,338.9,653.6"/>
	<path class="st0" d="M171.3,601.6v5.7c-2.1-2-0.9-3.9-1.2-5.6C170.5,601.7,170.9,601.7,171.3,601.6"/>
	<path class="st0" d="M380.7,547.7c1.6-0.1,3.1-0.3,5.5-0.5C382.6,549.7,382.6,549.7,380.7,547.7L380.7,547.7z"/>
	<path class="st0" d="M186.3,399.2c0.2,0.9,0.5,1.8,0.7,2.7l-0.5,0.1c-0.2-0.9-0.5-1.8-0.7-2.7C185.9,399.3,186.1,399.2,186.3,399.2
		"/>
	<path class="st0" d="M269.6,602c0.1-1.7,0.1-2.5,0.2-3.5C271.7,599.4,271.2,600.3,269.6,602"/>
	<path class="st0" d="M322.8,652c-0.1,0.7-0.3,1.4-0.5,2.2c-0.2,0-0.4-0.1-0.7-0.1c0.2-0.8,0.3-1.5,0.5-2.3c0-0.1,0.2-0.2,0.3-0.2
		C322.6,651.7,322.6,651.8,322.8,652"/>
	<path class="st0" d="M350.8,418.5v-2.3c0,0,0.1,0,0.1,0v2.3C350.9,418.5,350.8,418.5,350.8,418.5"/>
	<path class="st0" d="M370.3,544.2c0.7,0.6,1.4,1.2,2.4,1.9C370.4,546.8,370.4,545.4,370.3,544.2
		C370.4,544.1,370.3,544.2,370.3,544.2"/>
	<path class="st0" d="M240.5,459.6c-0.1-1-0.1-1.9-0.2-2.9c0.2,0,0.5,0,0.7,0v2.9C240.9,459.6,240.7,459.6,240.5,459.6"/>
	<path class="st0" d="M380.8,547.6l-3.5-0.6c0.1-0.3,0.2-0.6,0.3-0.9C378.6,546.7,379.6,547.2,380.8,547.6
		C380.7,547.7,380.8,547.6,380.8,547.6"/>
	<path class="st1" d="M231.7,480.7c1.2-8-0.5-16.4,2.9-24.4c1.6,0.3,2.6,1,2.5,2.8c-0.2,4.8-0.4,9.7-0.6,14.5c0,0.3,0,0.7-0.2,0.8
		c-1,0.9-2.3,1.5-2.8,2.5c-0.6,1.1-0.4,2.6-0.6,3.9C232.6,480.8,232.2,480.7,231.7,480.7"/>
	<path class="st1" d="M204.7,576.7c-0.3-0.8-0.7-1.6-0.8-2.5c-0.3-6-0.4-11.9-0.7-17.9c-0.1-2.1-0.8-4.2-0.8-6.3
		c0-1.9,0.5-3.8,1.3-5.7c2,4.7,2.7,9.5,2.5,14.4c-0.2,5.9,0.8,12-0.5,17.8C205.4,576.6,205,576.7,204.7,576.7"/>
	<path class="st1" d="M275.4,585.1c4.4,0.7,2.6-3.1,3.8-4.9c1.7,3-0.5,17.8-3.3,21.7c-2.7-0.9-2.1-3.2-1.9-5
		C274.3,593.1,274.9,589.4,275.4,585.1"/>
	<path class="st1" d="M205.4,579.1c0.6,0.6,1.6,1.2,1.5,1.6c-0.3,5.5-0.8,10.9-1.2,17C204.1,591.8,204,582.4,205.4,579.1"/>
	<path class="st1" d="M179.3,431.9V446c-1-0.9-2.1-1.4-2.1-1.9c-0.1-3.7,0.1-7.3,0.2-11C177.5,431.8,178.2,431.4,179.3,431.9"/>
	<path class="st1" d="M331.4,614.2c0.8,0.6,1.7,1,1.7,1.4c-0.2,3.4-0.5,6.8-0.9,10.3c0,0.3-1,0.6-1.5,0.9
		C331,622.6,331.2,618.7,331.4,614.2"/>
	<path class="st1" d="M345,458.4c0.5-3.9,1.1-7.9,1.6-11.8c0.3,0,0.6,0.1,0.9,0.1c0.6,4.1-0.8,8-1,12
		C346,458.6,345.5,458.5,345,458.4"/>
	<path class="st1" d="M189.8,433.1c-1.3-5-1.3-5.4-0.1-9C192.2,427.1,192.3,428.4,189.8,433.1"/>
	<path class="st1" d="M329.3,442.5c-0.7-4.4-0.8-8.3,0.3-12.8C330.9,432.9,330.7,439.1,329.3,442.5"/>
	<path class="st1" d="M320.4,624.9c0.5,3.1,1,5.7-0.7,8.5C317.8,630.3,317.2,627.8,320.4,624.9"/>
	<path class="st1" d="M284.6,543.5c-0.8,0.5-1.6,1.4-2.4,1.4c-1,0-2-0.7-3-1.1c0.3-0.6,0.6-1.8,0.9-1.8c1.3-0.2,2.6,0.1,3.9,0.1
		C284.3,542.6,284.5,543.1,284.6,543.5"/>
	<path class="st1" d="M329.4,426.7c0.4-2.9,0.7-5.9,1.1-8.8l1.1,0.1c-0.3,3-0.6,5.9-0.9,8.9C330.2,426.9,329.8,426.8,329.4,426.7"/>
	<polygon class="st1" points="179.9,451.5 179.9,458.5 179.5,458.5 179.5,451.3 	"/>
	<path class="st1" d="M323.9,614.9c0.2-1.2,0.4-2.5,0.6-3.7c0.2,0,0.4,0,0.5,0.1v3.7L323.9,614.9z"/>
	<path class="st1" d="M324,621.9c0.1-0.9,0.2-1.8,0.3-2.7c0.2,0,0.4,0,0.7-0.1c0.1,0.6,0.3,1.1,0.3,1.7c0,0.4-0.4,0.8-0.7,1.3
		C324.4,622.1,324.2,622,324,621.9"/>
	<path class="st1" d="M234.3,375c-0.9,0.2-1.4,0.5-1.8,0.3c-0.4-0.2-0.6-0.7-0.9-1.1c0.4-0.2,0.9-0.7,1.3-0.6
		C233.3,373.7,233.6,374.3,234.3,375"/>
	<path class="st1" d="M328.4,616c0.1,0.7,0.2,1.4,0.3,2.1c-0.2,0-0.4,0.1-0.6,0.1c-0.1-0.7-0.2-1.4-0.3-2.1
		C328,616.1,328.2,616,328.4,616"/>
	<path class="st1" d="M185.5,448.4v-4c0.2,0,0.4,0,0.5,0v3.9C185.8,448.3,185.7,448.3,185.5,448.4"/>
	<path class="st1" d="M330.9,610.3v-3.2h0.4v3.2C331.2,610.2,331.1,610.3,330.9,610.3"/>
	<path class="st1" d="M185.2,439.7v-3.2c0.2,0,0.5,0,0.7,0v3.3C185.7,439.7,185.4,439.7,185.2,439.7"/>
	<path class="st1" d="M276.2,674.9c-0.6,0.4-1.1,0.9-1.2,0.8c-0.4-0.2-0.7-0.7-1.1-1c0.3-0.2,0.6-0.7,0.9-0.6
		C275.2,674.1,275.6,674.5,276.2,674.9"/>
	<path class="st0" d="M647.8,452.3c2.4-0.2,5-0.5,7.6-0.5c10.3-0.1,20.7-0.2,31,0.1c5,0.1,10.1,0.5,14.8,2
		c16.7,5.1,21.6,23.9,9.7,36.7c-1.2,1.3-2.3,2.5-3.9,4.1c1.8,1.2,3.2,2.3,4.7,3.2c8.5,4.8,11.3,12.5,10.5,21.7
		c-0.8,9.6-6.2,15.8-15,19c-3.6,1.3-7.4,2.4-11.2,2.5c-15.9,0.3-31.8,0.1-47.6,0.1C646.3,534.7,645.8,463.3,647.8,452.3
		 M665.7,524.2c10.7,0,20.1,0.5,29.4-0.2c5.6-0.5,8.6-4.9,8.5-9.7c-0.1-4.4-2.9-8.2-8.1-9.3c-9.8-2-19.7-1.5-29.8-0.3V524.2z
		 M665.7,488.2c8.2,0,15.2,0.4,22.1-0.1c6.7-0.5,10.6-4.5,10.6-9.6c0.1-5.2-3.8-9.3-10.4-9.8c-7.2-0.5-14.5-0.1-22.4-0.1V488.2z"/>
	<path class="st0" d="M877.8,452.3c2.4-0.2,5-0.5,7.6-0.6c8.2-0.1,16.5-0.1,24.8,0c3.5,0.1,7.1,0.3,10.6,0.9
		c23.7,3.5,39.5,22,38.7,45.2c-0.8,23.2-17.6,41-41.1,43.3c-3.5,0.3-7.1,0.2-10.6,0.2c-9.7,0-19.4,0-28.9,0
		C876.6,534.8,875.9,465.6,877.8,452.3 M896.6,523.7c8,0,15.5,1,22.5-0.2c11.7-2,19.7-12.4,20.3-24.6c0.7-13.1-5.8-24-17.2-28
		c-8.2-2.9-16.6-2.7-25.7-1.2V523.7z"/>
	<path class="st0" d="M816.6,541.3c-7.6,0-13.5,0.3-19.2-0.2c-1.9-0.2-4.2-2-5.4-3.7c-4-5.4-8.1-10.9-11.3-16.9
		c-3.6-6.6-8.6-9.3-15.8-8c-1.4,0.2-2.9,0.4-4.8,0.6c-2.9,8.9,0.1,18.2-2.1,27.6h-16.3c-2.1-6.7-2.5-79.1-0.4-88.4
		c2.1-0.2,4.4-0.5,6.7-0.5c10.3-0.1,20.6-0.1,31,0c3.5,0,7.1,0.3,10.6,0.9c13.7,2.1,21.9,9.6,24.5,22c2.8,13.6-1.6,24.4-13.2,32
		c-1.4,0.9-2.9,1.9-5.1,3.4C802.4,520.1,808.9,529.8,816.6,541.3 M759.4,495.6c8.6,0,16.2,0.5,23.8-0.1c7.3-0.6,12-6.1,12.1-12.9
		c0.1-6.6-3.7-11.7-10.9-13c-8.1-1.5-16.2-1.3-25,0V495.6z"/>
	<path class="st0" d="M474.1,540.8h-17.9v-88.4h18.3v35c12.8,0.7,24.6,0.7,37.5,0v-34.9h18.6v88.2h-18.4v-34.8h-37.1
		C473.7,517.2,475.2,528.7,474.1,540.8"/>
	<path class="st0" d="M631.9,453c-4.6,7.2-8.7,13.9-13,20.6c-5.7,9-11.3,17.9-17.2,26.8c-2.6,3.9-3.7,7.8-3.6,12.4
		c0.2,9.1,0.1,18.2,0.1,27.9h-18.8c0-7.7-0.5-15,0.1-22.2c0.8-8.5-2.2-15.4-6.6-22.2c-7.7-11.8-15.2-23.8-22.8-35.8
		c-1.4-2.2-2.7-4.5-4.3-7.3c6.6-2.4,13.1-1.4,19.3-0.9c1.7,0.2,3.6,2.7,4.8,4.6c4.7,7.5,9.1,15.2,13.6,22.7c1.5,2.4,3.1,4.8,5.5,8.4
		c5.1-8.5,9.6-15.7,13.9-22.9c8.7-14.5,8.7-14.5,25.8-13.2C629.5,451.9,630,452.3,631.9,453"/>
	<path class="st0" d="M852.2,540.7c-1.2,0.2-2.6,0.6-4,0.6c-4.1,0.1-8.2,0-12.1,0c-2-6.9-2.5-78.6-0.6-88.9h16.2
		C853.7,458.7,854.1,530.3,852.2,540.7"/>
	<path class="st0" d="M884.1,581.7v-18.8c2.7-0.2,4.9-0.3,7.6-0.5v55.3c-3.5-0.9-6.5-1.7-10.7-2.8c-8.8,3.5-14.8,2.9-19.6-2.6
		c-4.8-5.6-5.7-17.1-1.8-24.2C863.9,580.7,869.9,578.9,884.1,581.7 M884.7,598.4c-0.1-1.2-0.2-2.1-0.3-3c-0.8-6-3.8-9.2-8.7-9.4
		c-5.1-0.2-9.2,3.6-9.8,9.4c-0.3,2.6-0.3,5.4,0.2,7.9c0.9,4.8,4.9,7.8,9.5,7.6c4.4-0.2,7.3-2.7,8.4-7.6
		C884.4,601.6,884.5,599.8,884.7,598.4"/>
	<path class="st0" d="M492.6,603.5c-0.4,4.6-3.2,7.5-6.5,9.9c-12.3,8.9-31,2.5-35.2-12.1c-1.7-5.7-1.8-11.5-0.4-17.4
		c4-16.8,20.5-21.6,33.2-15.9c4.8,2.1,8.2,5.6,9.1,11.4c-3.7,1.6-6.7,1.7-9.3-1.9c-3.5-4.8-8.4-6.4-14.1-4.9
		c-6.1,1.6-9.6,6.2-10.2,12.1c-0.5,5.4-0.6,11.4,1,16.5c3.4,10.4,15,12.8,22.5,4.9C485.7,603.1,488,600.8,492.6,603.5"/>
	<path class="st0" d="M591.4,594.2c-0.7-8.6-5.1-11.1-11.3-7c-4.1,2.7-4.1,2.7-8.8,2.5c0.3-4.3,2.6-7,6.4-8.3
		c5.2-1.9,10.5-1.7,15.6,0.2c4.2,1.6,6.6,5.1,6.7,9.6c0.2,8.5,0.1,17,0.1,26.8c-4.2-1.2-7.4-2.8-10.7-3c-3.4-0.1-6.8,2-10.1,1.8
		c-6-0.4-9.7-4.2-10.2-9.2c-0.6-5.2,2-9.2,8.1-11C581.5,595.4,586.2,595.1,591.4,594.2 M591.6,600.5c-3.8,0-7.3-0.4-10.6,0.1
		c-2.9,0.5-4.1,3-3.9,6c0.3,3.3,2.6,4.5,5.3,5C588,612.6,590.9,609.3,591.6,600.5"/>
	<path class="st0" d="M825.2,580.5c0,7.6-0.1,14.4,0,21.1c0.1,6.3,2.5,9.1,7.1,9.1c4.5,0,7.4-3.2,7.6-9c0.3-7,0.1-14,0.1-21.5h7.8
		v36.1c-5.4,1-5.4,1-9-2.6c-0.9,0.5-1.9,1.1-2.9,1.5c-10.5,4.9-18.4,0.3-18.9-11.1c-0.3-7.6-0.1-15.3-0.1-23.7H825.2z"/>
	<path class="st0" d="M726,600h-25c0.6,9.8,6.3,13.3,14.1,9.5c4.3-2.2,4.3-2.2,8.9-1.7c-3.1,7.8-10.6,11.3-19.1,8.9
		c-9.4-2.6-14.5-11.7-12.4-22.3c1.8-9.4,9.1-15.1,18.3-14.5C721,580.6,725.7,586.3,726,600 M717.4,594.5c-1.1-6.8-3.1-9-7.7-9.1
		c-5-0.2-7.4,2.3-8.5,9.1H717.4z"/>
	<path class="st0" d="M562.4,599.8h-25.1c0.4,9.9,6.4,13.7,13.9,9.6c3-1.6,5.5-3.4,8.9-1.8c-2.7,7.6-10.4,11.4-18.8,9.2
		c-9.5-2.5-14.6-11.3-12.8-22c1.6-9.6,9.3-15.6,18.8-14.7C557.6,580.9,562.1,586.4,562.4,599.8 M554.1,594.6
		c-1.8-7.4-4.3-9.6-9.2-9.2c-4.7,0.4-6.6,2.7-7.1,9.2H554.1z"/>
	<path class="st0" d="M921,598.9c-0.1-11,7.1-18.9,17.6-19.3c10.2-0.4,18.2,7.7,18.3,18.6c0.2,10.9-7.2,18.9-17.7,19.2
		C928.7,617.7,921.1,610,921,598.9 M928.6,598.5c0.5,2.4,0.7,4.5,1.4,6.3c1.8,4.6,5.9,6.8,10.5,6c5-0.9,8.2-5.3,8.4-11.8
		c0.2-6.5-2.5-11.1-7.4-12.6c-4.3-1.3-9.2,0.5-11.1,4.8C929.4,593.5,929.2,596.2,928.6,598.5"/>
	<path class="st0" d="M752.2,608.2c3.2-2.2,5.7-1,8.7,0.8c2.1,1.3,4.8,1.8,7.4,2.1c2.7,0.3,5.9-0.4,5.8-3.7c0-1.7-2.2-3.9-3.9-5
		c-1.9-1.2-4.4-1.4-6.7-2.2c-2.2-0.7-4.6-1.3-6.6-2.5c-5.8-3.5-6.1-10.3-0.9-14.7c7.5-6.1,19.6-3.6,25.5,6.7
		c-3.6-0.9-6.2-1.4-8.7-2.2c-1.6-0.5-3.1-1.8-4.8-2c-3-0.5-6.4-0.2-7.3,3.3c-0.9,3.5,2.3,4.3,4.8,5.1c2.2,0.7,4.6,1.1,6.8,1.8
		c6.6,2,10.5,6,10.4,10.5c-0.1,5.4-4.7,9.7-11.9,11C762.6,618.7,755.9,615.5,752.2,608.2"/>
	<path class="st0" d="M670.5,607.7c2.7-8.7,5.1-15.9,7.3-23.1c1.4-4.5,3.8-6.3,9-3.6c-4.3,12-8.5,23.8-12.8,35.9
		c-2.8,0.2-5.3,0.4-8.8,0.6c-4.2-12.3-8.4-24.3-12.6-36.5c7.8-1.8,7.9-1.9,9.7,3.7c1.9,5.9,3.3,11.9,5.1,17.8
		C667.9,604,669,605.2,670.5,607.7"/>
	<path class="st0" d="M614.1,569.3c2.4,0.2,4.4,0.4,6.6,0.6c0.4,3,0.8,5.5,1,7.6c2.6,1.9,6.2,3.1,6.7,5.1c1.1,4.6-4.6,2-7,5.8
		c0,4.9,0.2,11.3-0.1,17.7c-0.3,5,4.8,4.4,7,6.5c-3.5,6.1-10.6,6.1-13.6,0.3c-1-2-1.3-4.5-1.4-6.8c-0.2-4.4,0-8.8-0.1-13.3
		c0-3.2,0.6-6.6-4-7.7c-0.5-0.1-0.6-4.7-0.3-4.8C614.7,579.1,612.2,573.6,614.1,569.3"/>
	<path class="st0" d="M792.9,569.6h7c0.4,2.9,0.8,5.4,1.2,8c1.3,3.1,7.9,0.3,6.7,6.9c-1.9,0.6-4.2,1.4-7.1,2.4
		c0,6.4,0.2,12.5-0.1,18.6c-0.2,4.7,3.7,5.3,6.4,6.4c1,3.6-0.6,4.9-3.3,5.2c-3.7,0.5-7.3-0.2-9.3-3.6c-1.3-2.2-1.8-5-2-7.5
		c-0.3-4.7-0.1-9.4-0.1-14.1c0-2.9,0.3-5.9-3.8-6.9c-0.5-0.1-0.8-4.7-0.6-4.7C793.9,579.2,791.9,574,792.9,569.6"/>
	<path class="st0" d="M510.2,617.1h-7.7v-36.5c4.6-2.2,7.7-1.5,8.4,4.2c3.6-1.7,6.9-3.3,10.6-5.1c1.3,4.1,2.4,6.8-2.6,8
		c-6.5,1.5-8.7,6.4-8.8,12.6C510.2,605.6,510.2,610.9,510.2,617.1"/>
	<path class="st0" d="M638.1,617v-36.6c2.1-0.3,4.2-0.5,7.1-0.9V617H638.1z"/>
	<path class="st0" d="M911.1,617.1h-7v-36.8c2.1-0.2,4.2-0.3,7-0.6V617.1z"/>
	<path class="st0" d="M904.2,569.5c-0.7-3.9-1.6-7.5,3.6-7.1c1.3,0.1,3.5,2.2,3.6,3.5C911.7,571.2,907.9,569.9,904.2,569.5"/>
	<path class="st0" d="M638.2,569.5v-6.8c3.3-0.3,7-2.1,7.4,3C646.1,571,642.3,570,638.2,569.5"/>
	<path class="st1" d="M665.7,524.2v-19.5c10.2-1.1,20-1.6,29.8,0.3c5.2,1,8,4.9,8.1,9.3c0.1,4.7-2.9,9.2-8.5,9.7
		C685.8,524.8,676.3,524.2,665.7,524.2"/>
	<path class="st1" d="M665.7,488.2v-19.7c7.9,0,15.2-0.4,22.4,0.1c6.6,0.5,10.4,4.6,10.4,9.8c-0.1,5.1-4,9.1-10.6,9.6
		C680.9,488.6,673.9,488.2,665.7,488.2"/>
	<path class="st1" d="M896.6,523.7v-54c9-1.5,17.5-1.8,25.7,1.2c11.4,4,17.9,14.9,17.2,28c-0.6,12.2-8.6,22.7-20.3,24.6
		C912,524.6,904.6,523.7,896.6,523.7"/>
	<path class="st1" d="M759.4,495.6v-26c8.8-1.4,16.9-1.5,25,0c7.1,1.3,11,6.4,10.9,13c-0.1,6.8-4.8,12.3-12.1,12.9
		C775.6,496,767.9,495.6,759.4,495.6"/>
	<path class="st1" d="M884.7,598.4c-0.2,1.4-0.3,3.2-0.7,4.9c-1.1,4.9-4,7.4-8.4,7.6c-4.5,0.2-8.6-2.8-9.5-7.6
		c-0.5-2.6-0.5-5.3-0.2-7.9c0.6-5.7,4.7-9.5,9.8-9.4c4.9,0.2,7.9,3.4,8.7,9.4C884.5,596.2,884.6,597.1,884.7,598.4"/>
	<path class="st1" d="M591.6,600.5c-0.7,8.8-3.6,12-9.1,11.1c-2.7-0.5-5-1.7-5.3-5c-0.3-3.1,1-5.5,3.9-6
		C584.4,600.1,587.8,600.5,591.6,600.5"/>
	<path class="st1" d="M717.4,594.5h-16.2c1.1-6.8,3.5-9.3,8.5-9.1C714.3,585.5,716.3,587.7,717.4,594.5"/>
	<path class="st1" d="M554.1,594.6h-16.3c0.5-6.5,2.4-8.8,7.1-9.2C549.9,585,552.3,587.2,554.1,594.6"/>
	<path class="st1" d="M928.6,598.5c0.5-2.3,0.8-5,1.8-7.3c2-4.2,6.9-6.1,11.1-4.8c4.9,1.5,7.6,6.1,7.4,12.6
		c-0.2,6.5-3.4,10.9-8.4,11.8c-4.6,0.8-8.7-1.5-10.5-6C929.3,602.9,929.1,600.8,928.6,598.5"/>
</g>
</svg>
