<?xml version="1.0" encoding="utf-8"?>
<!-- Generator: Adobe Illustrator 22.0.1, SVG Export Plug-In . SVG Version: 6.00 Build 0)  -->
<svg version="1.1" id="Layer_1" xmlns="http://www.w3.org/2000/svg" xmlns:xlink="http://www.w3.org/1999/xlink" x="0px" y="0px"
	 viewBox="0 0 1080 1080" style="enable-background:new 0 0 1080 1080;" xml:space="preserve">
<style type="text/css">
	.st0{clip-path:url(#SVGID_2_);}
</style>
<g>
	<defs>
		<rect id="SVGID_1_" width="1080" height="1080"/>
	</defs>
	<clipPath id="SVGID_2_">
		<use xlink:href="#SVGID_1_"  style="overflow:visible;"/>
	</clipPath>
	<path class="st0" d="M313.5,476c1.5,16,4.1,30.4,8.2,45.5c1,5.7-7.1,13-11.9,8.6c-9.5-14.8-9-33.5-12.1-50.4
		c-0.8-6.7-0.8-6.5-7.3-7.5c-98.1-24.5-88.1,23.5-75.1-83.7c1.5-10.9,3.6-21.8,4.5-32.7c0.9-10.3,0.4-20.6,0.8-30.9
		c0.3-5.3,2.5-18.3,2.5-19.2c0.3-5.1,4-6.1,8.6-5.6c5.5,0.6,12.4,3.2,16.4,3.2c26.9,2.9,53.6,7.3,80.4,10.5
		c15.2,1.6,31.1-1.9,45.9,2.7c10.5,3.6-0.9,12.6-1.8,19.4c-8,31-5.7,63.3-8.7,95c-0.5,11-0.4,22-0.5,33c1.8,6.9-0.3,13.8-8.5,13.4
		C341,476.8,327.6,478.2,313.5,476 M293.8,444.8c-0.9-4.7-1.9-8.8-1.6-13.4c1.9-8.3,14.1-8.3,14.8,0.9c2,4.7-0.6,16.1,6.7,15.1
		c5.5-2.4,27.2,5.5,26.4-2.3c1.1-19.4,5.5-38.7,6.5-58.2c0.5-18,0.2-35.2,2-53.4c-20.9-4.1-41.6-6.1-62.6-8.9
		c-7.7,0.2-41.7-8.2-44-1.3c-3.6,13.7-5.3,27.7-6.6,41.8c-2,22.8-7,45.5-6.7,68.4c0.1,2.3,1.1,4.5,4,4.9
		C253,442.3,272.9,445.6,293.8,444.8"/>
	<path class="st0" d="M357.9,635.3c0,10,0,19.3,0,28.6c0,3,0,5.9-0.1,8.9c-0.2,4.8-0.5,9.6-0.6,14.4c-0.1,5.9-1.6,10.9-7,14.3
		c-1.6,1-2.3,3.4-3.4,5.2c-2.5,4.2-5.7,5.4-10.6,3.7c-4.3-1.5-5.6-5-5-9c1.9-11.2,4.3-22.3,6.1-33.6c1.8-11.7,3.2-23.5,4.5-35.3
		c0.3-2.8-1.7-6.3-0.8-8.6c4.6-10.6,4.4-22.2,6.7-33.2c0.7-3.4,0.2-7.1,0.5-10.7c0.6-5.5,1.7-11,2.3-16.6c1-8.7,1.7-17.4,2.9-26
		c0.4-2.7,2.1-5.1,3-7.7c0.9-2.3,2-4.6,2.2-6.9c0.3-3.7-0.4-7.5,0-11.2c0.4-4.3,3-8.5,7.1-8.9c4.1-0.4,8.7,1.4,12.6,3.2
		c3.8,1.8,6.9,5,10.5,7.3c3.6,2.4,7.4,4.5,11.1,6.7c11.4,7,22.5,14.4,34.3,20.7c12,6.5,24.6,12.2,37,18c3.9,1.8,8.2,3,12.3,4.5
		c5,1.9,8.5,6.1,8.3,9.7c-0.3,4.4-4.5,8.1-9.9,9.7c-7.3,2.2-14.5,4.7-21.5,7.6c-12.5,5.2-24.7,11.1-37.3,16
		c-12.8,4.9-25.9,8.9-38.8,13.3c-1.5,0.5-3,1.3-4.9,2.1c3.6,4.5,6.5,8.7,10,12.3c6.5,6.8,13.2,13.6,20.2,20
		c13.8,12.4,25.5,26.8,37.7,40.8c3.4,3.9,8.2,6.5,11.8,10.2c4.8,4.8,9,10.2,13.5,15.3c0.9,1,1.6,2.3,2.7,3.1
		c10.8,7.6,18.4,18,25.9,28.6c3.5,5,6.5,9.7,6.2,16c-0.2,4.5-3,7.5-6.4,9c-3.2,1.5-7.3,2.8-10.5-1.4c-3-3.9-6.5-7.4-9.8-11.2
		c-0.3-0.3-0.5-0.9-0.8-1.1c-10.1-4.7-13.5-15.1-19.8-23c-0.7-0.8-1.5-1.6-2.3-2.5c-1.1,1-2.1,2-3.6,3.4c-0.2-1.4-0.3-2.2-0.3-3
		c-0.1-2.8-1-4.6-3.3-6.9c-6.2-6.3-11.5-13.6-17.1-20.5c-2.9-3.5-5.6-7.1-8.6-10.4c-13.4-14.7-26.7-29.6-40.6-43.8
		c-6.1-6.3-13.7-11.2-20.6-16.7C362.1,638.6,360.4,637.3,357.9,635.3 M363.2,603.8c29.2-11.8,57.4-23.1,86.7-34.9
		c-3.3-1.9-5.2-3.1-7.2-4.2c-14.7-8-27.5-19.5-44.2-24c-0.7-0.2-1.3-0.8-2-1.2c-4.9-3-9.6-6.3-14.7-9c-1.4-0.7-5-0.2-5.5,0.8
		c-1.7,3.8-3,7.9-3.6,12c-1.6,10-2.6,20.1-4.2,30.1C366.9,583.2,365.1,592.9,363.2,603.8"/>
	<path class="st0" d="M758,573.3c-1.5,2.6-3.3,5.1-4.5,7.9c-6.3,14.2-12.3,28.5-18.9,42.6c-1.8,3.8-5.2,5.6-10.2,5.3
		c-10.8-0.6-17.1-6.2-22.9-14.9c-6-9-14.2-16.5-21.5-24.6c-2.5-2.8-5-5.5-8.2-9.1c-1.9,5.5-4.1,10.1-5.1,15
		c-2.2,10.8-3.4,21.9-5.6,32.7c-2.1,10.4-4.7,20.7-7.2,31c-1.9,8-4,16-6,24.1c-1.2,4.7-4.1,6.9-9,5.6c-2.6-0.7-3.6,0.5-4.6,2.6
		c-1.6,3.4-3.8,6.3-8.2,5.5c-4.8-0.9-8.1-4.4-8.7-9.2c-0.7-6.4,1-12.5,4.2-17.9c8-13.4,11-28.4,14.9-43.2c2.6-9.6,6.8-18.8,9.4-28.4
		c2.3-8.5,3.2-17.4,4.7-26.2c1.2-7,2.1-14,7.1-19.8c6.3-7.3,17.1-8.2,23.4-1c6.2,7.1,12.4,14.4,18,22c5,6.8,9.1,14.1,13.6,21.2
		c0.6,0.9,1.2,1.7,2.2,3.2c1.4-2.8,2.5-5.2,3.8-7.4c6.5-11.9,13.1-23.8,19.4-35.8c1.9-3.5,2.6-7.7,4.3-11.3
		c2.2-4.5,4.2-9.4,7.5-13.1c4.6-5.1,15.5-1.3,18.1,5.5c9.9,26.2,19.7,52.4,30.1,78.4c8.5,21.2,14.2,42.9,16.2,65.7
		c0.4,4.6-1.4,7.1-5.2,7.1c-3.3,0-6.6-0.1-9.9-0.5c-7.1-0.8-8.9-3.4-10.6-10.9c-2.1-9.3-4.2-18.8-7.8-27.6
		c-6.7-16.7-11.2-34-15.3-51.5c-1.8-7.6-3.8-15.1-5.7-22.6C759.3,573.5,758.6,573.4,758,573.3"/>
	<path class="st0" d="M521.4,704.3c-0.2,0.2,0.3-0.2,0.9-0.6l-0.1-0.7c-8.3,1.3-16.8,2-25,4.1c-7.6,1.9-21.7-3.2-23.1-10.1
		c-0.7-3.1,0.9-7,2.1-10.3c4.3-11.8,9.7-23.4,13.1-35.4c1.4-5.1,3.6-9.5,5.7-14.2c1.8-3.8,3.3-7.8,4-11.9c1.2-7.5,3.8-14.3,7-21.2
		c5-10.7,9-21.9,13.4-32.8c3.8-9.2,7.3-18.6,11.6-27.6c1.3-2.8,4.6-4.6,7.2-6.7c0.9-0.8,2.3-0.9,3.4-1.6c9.6-5.7,14.9-1.8,18.5,6.6
		c4.6,11,8.2,22.5,13.1,33.5c8.1,18.2,12.6,37.4,17.4,56.7c3.3,13.3,8.9,26.4,15,38.7c4.3,8.5,3.1,24.4-6,30.7
		c-3.4,2.4-7.5,3.6-11.1,1.7c-10-5.2-20.2-2.2-30.3-1.5c-6.8,0.5-13.6,1-20.3,1.5C532.2,703.5,526.5,703.9,521.4,704.3 M547.9,560.9
		l-2.5,0.4c-2.2,6.9-4.2,13.9-6.5,20.8c-9.1,26.7-18,53.5-27.5,80c-2,5.6-1.5,10.7-0.4,16c0.2,0.9,2.5,2.1,3.8,2.1
		c6.2-0.3,12.4-1.2,18.6-1.6c13.8-0.9,27.7-1.6,41.5-2.6c3.2-0.2,6.3-1.2,8.6-1.7c-3-11.9-6.1-23.2-8.7-34.5
		c-1.5-6.5-1.7-13.4-3.7-19.7c-4.7-15.1-9.8-30.1-15.2-45C554,570.1,550.6,565.6,547.9,560.9"/>
	<path class="st0" d="M427.2,449.4c20.4,7.5,40.7,3.9,61.4,4.9c1.3-15.2,2.6-29.8,3.7-44.5c1.4-18.9,2.7-37.9,4.1-56.8
		c0.4-5.1,0.6-10.3,1.7-15.3c1.4-6.3,7.1-12,11.2-12.2c7.1-0.2,8.5,2.4,9.2,9.9c3,31.6-1.9,62.9-3.4,94.3
		c-0.4,8.4,0.3,16.9,0.6,25.3c0,0.9,0.5,1.7,0.8,2.6c2.7,7,1.3,8.2-4.4,12.5c-4.9,3.7-10.1,5.5-15.5,7.3c-1.8,0.6-3.7,0.8-5.6,0.7
		c-19.1-0.5-38.2-1.1-57.4-1.5c-7.5-0.2-15,0.2-22.5-0.1c-5-0.2-9.9-6.5-9.7-11.7c0.2-7.9,0.1-15.8,0.2-23.6
		c0.2-25.4,0.2-50.9,0.8-76.3c0.2-6.3,2.9-12.5,4-18.8c0.8-4.7,0.7-9.5,1.3-14.2c0.2-1.5,1.4-4,2.2-4c5.3,0,11-0.5,15.7,1.4
		c2.3,1,3.8,6.6,4,10.3c0.3,5.4-1.4,11-1.4,16.5c0,13.2,0.9,26.4,0.7,39.6c-0.2,16.4-0.9,32.8-1.5,49.2
		C427.3,446.5,427.2,448.1,427.2,449.4"/>
	<path class="st0" d="M762.9,378.7c-1.3,15.6-2.5,31.3-4,46.9c-0.4,4.2-1.4,8.3-2.2,12.5c-1.9,10.4-4,20.8-5.6,31.3
		c-1,6-9.4,10-13.8,5.7c-2.6-2.6-4.7-7.1-4.8-10.8c-0.5-31.7,5.1-63,7.9-94.5c0.9-9.6-0.7-19.4-1-29.1c-0.4-10.8,5.6-13.2,15.3-10.7
		c12.1,3.1,15.9,13.5,21.4,22.2c6.7,10.4,11.6,22.1,17.7,33c4.4,7.8,9.7,15.1,14.4,22.7c1.9,3.2,3.4,6.7,5.7,11.5
		c0.3-3.4,0.5-5.5,0.6-7.7c2-24,4-48.1,6-72.1c0.3-3.5,0.8-7,1.2-10.4c0.1-0.9,0.3-1.8,0.7-2.7c2.2-4.8,9.2-5.5,17.6-1.8
		c4.3,1.9,5.4,4.9,3.7,10.4c-1.8,5.7-4.4,11.3-5,17.2c-0.8,8.3-0.1,16.7-0.1,25c0,3.7-0.2,7.3-0.4,11c-0.5,9.2-0.9,18.3-1.7,27.4
		c-0.6,6-1.9,12-2.7,18c-1.3,9.1-2.3,18.2-3.7,27.2c-0.9,5.3-5.4,8.6-11.7,9.4c-4.8,0.6-6.7-2.7-8.5-6.5
		c-7-15.5-13.4-31.4-21.3-46.5c-7.1-13.6-15.8-26.2-23.8-39.2L762.9,378.7z"/>
	<path class="st0" d="M578.3,381.8c8.6,14.2,18.2,25.2,31.3,32.6c2.2,1.2,3.9,3.7,5.4,5.9c3.5,5.3,1.7,11.6-4.1,13.4
		c-14.5,4.6-23.7,15.8-31.9,28.2c-1,1.5-0.3,5.7,1.1,7.2c12.1,13.6,24.4,27.1,36.9,40.3c4.9,5.2,7.1,13.3,3.7,17.4
		c-3.7,4.5-14.3,3-19.1-2.4c-11.7-13-23.4-26-35.4-38.7c-4.3-4.5-9.4-8.2-14.2-12.1c-8-6.6-8.7-14.4-1.2-21.8
		c4.1-4,9.5-6.7,13.2-11.1c4-4.7,7.6-10.4,9.4-16.4c0.7-2.4-3.5-7.1-6.2-9.9c-6.3-6.5-13-12.5-19.6-18.7c-4.1-3.8-4.4-10.2-0.7-14.6
		c14.8-17.5,29.7-34.8,48.7-47.5c8.4-5.6,20.3-3.3,25.2,5.8c2.1,3.9-0.3,10.2-5.1,13.6c-9.6,6.9-19.2,13.9-28.6,21
		C584,376.6,581.1,379.5,578.3,381.8"/>
	<path class="st0" d="M669.9,421.6c-7.2-6.9-14.1-12.9-20.4-19.5c-3.4-3.5-6.3-7.6-8.8-11.9c-4.1-7.1-2.3-11.2,3.5-16.5
		c12.3-11.5,24.1-23.7,35.9-35.7c3-3,5.2-7.3,8.6-9.5c2.9-1.9,8-3.5,10.4-2.1c2.9,1.7,4.5,6.6,5.6,10.5c0.9,3.1,0,6.8,0.2,10.2
		c0.4,7.7-5,11.4-9.4,15.8c-6.1,6.2-12.2,12.4-18.1,18.8c-3.5,3.8-3.4,8.3,0.1,11.8c5.8,5.9,12.1,11.3,18.3,16.8
		c2.2,1.9,4.9,3.2,6.8,5.3c7.7,8.2,5.4,14.8-4.2,20.2c-8.2,4.6-15.1,12.1-22.1,18.7c-1,1-0.7,5.3,0.5,7
		c7.7,11.2,15.6,22.3,23.8,33.1c2.5,3.3,6.9,4.9,9.7,8c2.8,3.1,6,6.9,6.7,10.9c1,5.1-1.2,10.3-6.7,12.2c-6.3,2.2-13.5-0.8-17.2-5.3
		c-10.8-13.2-22-26.1-33.2-39c-4.3-4.9-9.2-9.2-13.5-14.1c-6.2-7.2-3.8-15.7,3.1-21.9C657,438.4,663,429.7,669.9,421.6"/>
	<path class="st0" d="M843.7,546.3c-0.3,17.1-0.9,34.2-0.8,51.3c0.1,11.7,1.3,23.3,1.9,35c0.2,4.2,0,8.4,0.3,12.6
		c0.4,4.4,1.3,8.7,1.9,13.1c0.7,5.5,2,11.1,1.8,16.6c-0.2,5.3-3,7.1-8,7c-5.9,0-9.5-2.7-10.2-7.6c-1.4-10.1-3.1-20.3-4.1-30.5
		c-1.2-12.1-2-24.2-2.4-36.4c-0.5-17.3-0.4-34.6-0.9-51.9c-0.1-4-1.2-8-2.5-11.8c-2-6.2-0.5-9.7,5.3-12.9c4.3-2.3,8-4.4,13.1-1.9
		c3.7,1.8,5.5,4.3,5.4,8.4c-0.1,3,0,5.9,0,8.9C844.3,546.3,844,546.3,843.7,546.3"/>
</g>
</svg>
