<?xml version="1.0" encoding="utf-8"?>
<!-- Generator: Adobe Illustrator 22.0.1, SVG Export Plug-In . SVG Version: 6.00 Build 0)  -->
<svg version="1.1" id="Capa_1" xmlns="http://www.w3.org/2000/svg" xmlns:xlink="http://www.w3.org/1999/xlink" x="0px" y="0px"
	 viewBox="0 0 566.9 566.9" style="enable-background:new 0 0 566.9 566.9;" xml:space="preserve">
<style type="text/css">
	.st0{fill-rule:evenodd;clip-rule:evenodd;}
</style>
<g>
	<g>
		<path d="M183.6,268.2v41.2c0,10.4-8.5,18.9-18.9,18.9c-10.4,0-18.9-8.5-18.9-18.9v-41.2c0-3.9-3.2-7.1-7.1-7.1
			c-3.9,0-7.1,3.2-7.1,7.1v41.2c0,18.3,14.9,33.1,33.1,33.1c18.3,0,33.1-14.9,33.1-33.1v-41.2c0-3.9-3.2-7.1-7.1-7.1
			S183.6,264.3,183.6,268.2z"/>
	</g>
	<path d="M119.1,261c-18.3,0-33.1,14.9-33.1,33.1v7.4c0,0,0,0.1,0,0.1c0,0.1,0,0.1,0,0.2v7.4c0,10.4-8.5,18.9-18.9,18.9
		c-3.9,0-7.1,3.2-7.1,7.1c0,3.9,3.2,7.1,7.1,7.1c18.3,0,33.1-14.9,33.1-33.1v-7.4c0,0,0-0.1,0-0.1c0-0.1,0-0.1,0-0.2v-7.4
		c0-10.4,8.5-18.9,18.9-18.9c3.9,0,7.1-3.2,7.1-7.1C126.2,264.2,123,261,119.1,261z"/>
	<path d="M473.8,261.1c-10.5,0-19.9,5-26,12.7c-6.1-7.7-15.5-12.7-26-12.7c-18.3,0-33.1,14.9-33.1,33.1v40.5c0,3.9,3.2,7.1,7.1,7.1
		c3.9,0,7.1-3.2,7.1-7.1v-40.5c0-10.4,8.5-18.9,18.9-18.9c10.4,0,18.9,8.5,18.9,18.9v40.5c0,3.9,3.2,7.1,7.1,7.1h0h0
		c3.9,0,7.1-3.2,7.1-7.1v-40.5c0-10.4,8.5-18.9,18.9-18.9c10.4,0,18.9,8.5,18.9,18.9v40.5c0,3.9,3.2,7.1,7.1,7.1
		c3.9,0,7.1-3.2,7.1-7.1v-40.5C507,275.9,492.1,261.1,473.8,261.1z"/>
	<path class="st0" d="M338.4,261.2c-22.5,0-40.8,18.3-40.8,40.8c0,22.5,18.3,40.8,40.8,40.8c10.1,0,19.4-3.7,26.6-9.9v2.1
		c0,3.9,3.2,7.1,7.1,7.1c3.9,0,7.1-3.2,7.1-7.1v-33C379.2,279.5,360.9,261.2,338.4,261.2z M338.4,328.6c-14.6,0-26.6-11.9-26.6-26.6
		c0-14.6,11.9-26.6,26.6-26.6c14.6,0,26.6,11.9,26.6,26.6C364.9,316.7,353,328.6,338.4,328.6z"/>
	<path class="st0" d="M281.6,224.1c-3.9,0-7.1,3.2-7.1,7.1v39.9c-7.1-6.1-16.4-9.9-26.6-9.9c-22.5,0-40.8,18.3-40.8,40.8
		c0,22.5,18.3,40.8,40.8,40.8c22.5,0,40.8-18.3,40.8-40.8v-70.8C288.7,227.3,285.5,224.1,281.6,224.1z M247.9,328.6
		c-14.6,0-26.6-11.9-26.6-26.6c0-14.6,11.9-26.6,26.6-26.6c14.6,0,26.6,11.9,26.6,26.6C274.4,316.7,262.5,328.6,247.9,328.6z"/>
</g>
</svg>
